<svg width="86" height="86" viewBox="0 0 86 86" fill="none" xmlns="http://www.w3.org/2000/svg">
<path d="M28.9196 51.1281H34.9827L27.379 33.7338H21.614L14.0102 51.1281H19.974L21.1419 48.0966H27.7517L28.9196 51.1281ZM22.757 43.8722L24.4468 39.4988L26.1365 43.8722H22.757Z" fill="#91C51B"/>
<path d="M35.9187 51.1281H44.4916C50.3062 51.1281 54.3069 47.8232 54.3069 42.431C54.3069 37.0388 50.3062 33.7338 44.4916 33.7338H35.9187V51.1281ZM41.783 46.5559V38.3061H44.2431C46.7031 38.3061 48.3928 39.7721 48.3928 42.431C48.3928 45.0898 46.7031 46.5559 44.2431 46.5559H41.783Z" fill="#91C51B"/>
<path d="M62.9338 51.5257C68.326 51.5257 71.0346 48.842 71.0346 45.6614C71.0346 39.2503 61.418 40.9897 61.418 38.9024C61.418 38.3061 61.9647 37.8091 63.6792 37.8091C65.195 37.8091 66.8102 38.2315 68.5248 39.1012L70.2891 34.852C68.4751 33.8332 66.0648 33.3363 63.729 33.3363C58.3367 33.3363 55.6282 35.9703 55.6282 39.2006C55.6282 45.6862 65.2447 43.9219 65.2447 46.1086C65.2447 46.705 64.6484 47.0529 62.9835 47.0529C61.0701 47.0529 58.8834 46.4317 57.2434 45.4626L55.3548 49.7366C57.0943 50.8051 60.0264 51.5257 62.9338 51.5257Z" fill="#91C51B"/>
<path fill-rule="evenodd" clip-rule="evenodd" d="M43 76.132C61.2983 76.132 76.132 61.2983 76.132 43C76.132 24.7017 61.2983 9.86801 43 9.86801C24.7017 9.86801 9.86801 24.7017 9.86801 43C9.86801 61.2983 24.7017 76.132 43 76.132ZM43 83.0345C65.1104 83.0345 83.0345 65.1104 83.0345 43C83.0345 20.8896 65.1104 2.96552 43 2.96552C20.8896 2.96552 2.96552 20.8896 2.96552 43C2.96552 65.1104 20.8896 83.0345 43 83.0345Z" fill="#D4E1E8"/>
</svg>
