<svg width="61" height="60" viewBox="0 0 61 60" fill="none" xmlns="http://www.w3.org/2000/svg">
<g clip-path="url(#clip0_414_7999)">
<path d="M60.4316 28.6491C58.9713 29.4846 57.301 30.0001 55.4997 30.0001C51.5355 30.0001 48.1418 27.673 46.523 24.3279C45.4244 24.7433 44.245 24.9996 43.0005 24.9996C37.4804 24.9996 32.9995 20.5221 32.9995 14.9998C32.9995 12.5347 33.9276 10.306 35.4096 8.5619C32.4828 6.81725 30.5001 3.65467 30.5001 0C13.9325 0 0.5 13.4325 0.5 30.0001C0.5 46.5689 13.9325 60.0002 30.5001 60.0002C47.07 60.0002 60.5002 46.5689 60.5002 30.0001C60.5002 29.5446 60.451 29.1 60.4316 28.6491ZM30.5001 54.9992C16.7157 54.9992 5.49935 43.7845 5.49935 30.0001C5.49935 17.585 14.5968 7.25555 26.4718 5.32494C27.0675 6.89278 27.9292 8.34503 29.0204 9.6302C28.3515 11.3382 28.0002 13.1601 28.0002 14.9998C28.0002 23.271 34.7287 30.0001 43.0005 30.0001C43.4291 30.0001 43.8611 29.9807 44.2943 29.94C46.9848 33.0076 50.8122 34.8564 54.9996 34.992C52.6799 46.3926 42.5759 54.9992 30.5001 54.9992Z" fill="#87AB49"/>
<path d="M45.4999 41.2502C45.4999 43.321 43.821 44.9999 41.7502 44.9999C39.6788 44.9999 38 43.321 38 41.2502C38 39.1788 39.6788 37.5 41.7502 37.5C43.821 37.5 45.4999 39.1788 45.4999 41.2502Z" fill="#87AB49"/>
<path d="M30.4999 46.2495C30.4999 48.3203 28.821 49.9992 26.7497 49.9992C24.6788 49.9992 23 48.3203 23 46.2495C23 44.1781 24.6788 42.4993 26.7497 42.4993C28.821 42.4993 30.4999 44.1781 30.4999 46.2495Z" fill="#87AB49"/>
<path d="M32.9999 33.7497C32.9999 35.821 31.321 37.4999 29.2502 37.4999C27.1788 37.4999 25.5 35.821 25.5 33.7497C25.5 31.6788 27.1788 30 29.2502 30C31.321 30 32.9999 31.6788 32.9999 33.7497Z" fill="#87AB49"/>
<path d="M23.0005 18.75C23.0005 20.8208 21.321 22.5002 19.2502 22.5002C17.1794 22.5002 15.5 20.8208 15.5 18.75C15.5 16.6792 17.1794 14.9998 19.2502 14.9998C21.321 14.9998 23.0005 16.6792 23.0005 18.75Z" fill="#87AB49"/>
<path d="M17.9999 31.2492C17.9999 33.3205 16.321 34.9994 14.2497 34.9994C12.1788 34.9994 10.5 33.3205 10.5 31.2492C10.5 29.1784 12.1788 27.4995 14.2497 27.4995C16.321 27.4995 17.9999 29.1784 17.9999 31.2492Z" fill="#87AB49"/>
</g>
<defs>
<clipPath id="clip0_414_7999">
<rect width="60" height="60" fill="white" transform="translate(0.5)"/>
</clipPath>
</defs>
</svg>
