<svg width="79" height="80" viewBox="0 0 79 80" fill="none" xmlns="http://www.w3.org/2000/svg">
<rect width="79" height="80" rx="39.5" fill="#71B00A"/>
<path d="M36.5751 27.4491C33.9485 29.6164 32.5307 32.7853 32.0848 34.0988L32.0863 34.3808V57.3121C32.0863 59.1196 33.5332 60.5848 35.318 60.5848H57.1767C59.1433 60.5848 60.8731 59.865 61.382 57.4895C61.7891 55.5891 60.7815 54.116 60.2268 53.6169C60.9361 53.6785 62.4886 53.2105 63.0236 50.8462C63.5587 48.4819 62.1521 46.7825 61.382 46.2284C62.1927 46.2489 64.2361 45.5677 64.5814 43.145C64.9267 40.7223 63.6114 39.8045 63.0236 39.2093C64.1586 39.1683 66.4528 38.3227 66.5501 35.2688C66.6474 32.2149 64.2396 31.4514 63.0236 31.4514H48.1273C49.3433 29.7274 51.1674 25.479 51.8362 18.8294C52.505 12.1797 46.4249 10.7635 45.3913 12.0565C44.3576 13.3495 45.3305 16.9821 44.3576 20.2454C43.3848 23.5086 39.8584 24.74 36.5751 27.4491Z" fill="white"/>
<path d="M15.082 34.1428C15.082 32.5362 16.3682 31.2337 17.9548 31.2337H26.0061C27.5927 31.2337 28.8788 32.5362 28.8788 34.1428V57.2911C28.8788 58.8977 27.5927 60.2002 26.0061 60.2002H17.9548C16.3682 60.2002 15.082 58.8977 15.082 57.2911V34.1428Z" fill="white"/>
</svg>
