<svg width="71" height="71" viewBox="0 0 71 71" fill="none" xmlns="http://www.w3.org/2000/svg">
<g clip-path="url(#clip0_7480_1220)">
<path d="M41.6499 27.6677L39.0227 25.0845L29.3784 34.595L41.6499 27.6677Z" fill="#879EC1"/>
<path d="M41.6499 20.6356L29.3784 13.7083L39.0227 23.2188L41.6499 20.6356Z" fill="#879EC1"/>
<path d="M45.4955 25.4576C46.282 24.8434 46.282 23.4592 45.4432 22.8451L42.8692 21.3802L39.9973 24.1522L42.8692 26.9243L45.4955 25.4576Z" fill="#879EC1"/>
<path d="M26.8607 35.1495L38.0753 24.1476L26.8607 13.1502V13.1493C26.2933 13.4417 25.9129 13.9743 25.9129 14.6664V33.6324C25.9129 34.3245 26.2933 34.8571 26.8607 35.1495Z" fill="#879EC1"/>
</g>
<path d="M10.5561 51.5395H12.0361V54.3795C11.6561 54.6662 11.2161 54.8862 10.7161 55.0395C10.2161 55.1928 9.71276 55.2695 9.20609 55.2695C8.47943 55.2695 7.82609 55.1162 7.24609 54.8095C6.66609 54.4962 6.20943 54.0662 5.87609 53.5195C5.54943 52.9662 5.38609 52.3428 5.38609 51.6495C5.38609 50.9562 5.54943 50.3362 5.87609 49.7895C6.20943 49.2362 6.66943 48.8062 7.25609 48.4995C7.84276 48.1862 8.50276 48.0295 9.23609 48.0295C9.84943 48.0295 10.4061 48.1328 10.9061 48.3395C11.4061 48.5462 11.8261 48.8462 12.1661 49.2395L11.1261 50.1995C10.6261 49.6728 10.0228 49.4095 9.31609 49.4095C8.86943 49.4095 8.47276 49.5028 8.12609 49.6895C7.77943 49.8762 7.50943 50.1395 7.31609 50.4795C7.12276 50.8195 7.02609 51.2095 7.02609 51.6495C7.02609 52.0828 7.12276 52.4695 7.31609 52.8095C7.50943 53.1495 7.77609 53.4162 8.11609 53.6095C8.46276 53.7962 8.85609 53.8895 9.29609 53.8895C9.76276 53.8895 10.1828 53.7895 10.5561 53.5895V51.5395ZM15.9909 55.2295C15.4243 55.2295 14.9143 55.1128 14.4609 54.8795C14.0143 54.6395 13.6643 54.3095 13.4109 53.8895C13.1576 53.4695 13.0309 52.9928 13.0309 52.4595C13.0309 51.9262 13.1576 51.4495 13.4109 51.0295C13.6643 50.6095 14.0143 50.2828 14.4609 50.0495C14.9143 49.8095 15.4243 49.6895 15.9909 49.6895C16.5576 49.6895 17.0643 49.8095 17.5109 50.0495C17.9576 50.2828 18.3076 50.6095 18.5609 51.0295C18.8143 51.4495 18.9409 51.9262 18.9409 52.4595C18.9409 52.9928 18.8143 53.4695 18.5609 53.8895C18.3076 54.3095 17.9576 54.6395 17.5109 54.8795C17.0643 55.1128 16.5576 55.2295 15.9909 55.2295ZM15.9909 53.9495C16.3909 53.9495 16.7176 53.8162 16.9709 53.5495C17.2309 53.2762 17.3609 52.9128 17.3609 52.4595C17.3609 52.0062 17.2309 51.6462 16.9709 51.3795C16.7176 51.1062 16.3909 50.9695 15.9909 50.9695C15.5909 50.9695 15.2609 51.1062 15.0009 51.3795C14.7409 51.6462 14.6109 52.0062 14.6109 52.4595C14.6109 52.9128 14.7409 53.2762 15.0009 53.5495C15.2609 53.8162 15.5909 53.9495 15.9909 53.9495ZM22.5437 55.2295C21.977 55.2295 21.467 55.1128 21.0137 54.8795C20.567 54.6395 20.217 54.3095 19.9637 53.8895C19.7103 53.4695 19.5837 52.9928 19.5837 52.4595C19.5837 51.9262 19.7103 51.4495 19.9637 51.0295C20.217 50.6095 20.567 50.2828 21.0137 50.0495C21.467 49.8095 21.977 49.6895 22.5437 49.6895C23.1103 49.6895 23.617 49.8095 24.0637 50.0495C24.5103 50.2828 24.8603 50.6095 25.1137 51.0295C25.367 51.4495 25.4937 51.9262 25.4937 52.4595C25.4937 52.9928 25.367 53.4695 25.1137 53.8895C24.8603 54.3095 24.5103 54.6395 24.0637 54.8795C23.617 55.1128 23.1103 55.2295 22.5437 55.2295ZM22.5437 53.9495C22.9437 53.9495 23.2703 53.8162 23.5237 53.5495C23.7837 53.2762 23.9137 52.9128 23.9137 52.4595C23.9137 52.0062 23.7837 51.6462 23.5237 51.3795C23.2703 51.1062 22.9437 50.9695 22.5437 50.9695C22.1437 50.9695 21.8137 51.1062 21.5537 51.3795C21.2937 51.6462 21.1637 52.0062 21.1637 52.4595C21.1637 52.9128 21.2937 53.2762 21.5537 53.5495C21.8137 53.8162 22.1437 53.9495 22.5437 53.9495ZM32.0864 49.7695V54.2495C32.0864 55.2362 31.8297 55.9695 31.3164 56.4495C30.8031 56.9295 30.0531 57.1695 29.0664 57.1695C28.5464 57.1695 28.0531 57.1062 27.5864 56.9795C27.1197 56.8528 26.7331 56.6695 26.4264 56.4295L27.0464 55.3095C27.2731 55.4962 27.5597 55.6428 27.9064 55.7495C28.2531 55.8628 28.5997 55.9195 28.9464 55.9195C29.4864 55.9195 29.8831 55.7962 30.1364 55.5495C30.3964 55.3095 30.5264 54.9428 30.5264 54.4495V54.2195C30.1197 54.6662 29.5531 54.8895 28.8264 54.8895C28.3331 54.8895 27.8797 54.7828 27.4664 54.5695C27.0597 54.3495 26.7364 54.0428 26.4964 53.6495C26.2564 53.2562 26.1364 52.8028 26.1364 52.2895C26.1364 51.7762 26.2564 51.3228 26.4964 50.9295C26.7364 50.5362 27.0597 50.2328 27.4664 50.0195C27.8797 49.7995 28.3331 49.6895 28.8264 49.6895C29.6064 49.6895 30.1997 49.9462 30.6064 50.4595V49.7695H32.0864ZM29.1364 53.6095C29.5497 53.6095 29.8864 53.4895 30.1464 53.2495C30.4131 53.0028 30.5464 52.6828 30.5464 52.2895C30.5464 51.8962 30.4131 51.5795 30.1464 51.3395C29.8864 51.0928 29.5497 50.9695 29.1364 50.9695C28.7231 50.9695 28.3831 51.0928 28.1164 51.3395C27.8497 51.5795 27.7164 51.8962 27.7164 52.2895C27.7164 52.6828 27.8497 53.0028 28.1164 53.2495C28.3831 53.4895 28.7231 53.6095 29.1364 53.6095ZM33.5384 47.7295H35.0984V55.1495H33.5384V47.7295ZM41.8162 52.4795C41.8162 52.4995 41.8062 52.6395 41.7862 52.8995H37.7162C37.7895 53.2328 37.9628 53.4962 38.2362 53.6895C38.5095 53.8828 38.8495 53.9795 39.2562 53.9795C39.5362 53.9795 39.7828 53.9395 39.9962 53.8595C40.2162 53.7728 40.4195 53.6395 40.6062 53.4595L41.4362 54.3595C40.9295 54.9395 40.1895 55.2295 39.2162 55.2295C38.6095 55.2295 38.0728 55.1128 37.6062 54.8795C37.1395 54.6395 36.7795 54.3095 36.5262 53.8895C36.2728 53.4695 36.1462 52.9928 36.1462 52.4595C36.1462 51.9328 36.2695 51.4595 36.5162 51.0395C36.7695 50.6128 37.1128 50.2828 37.5462 50.0495C37.9862 49.8095 38.4762 49.6895 39.0162 49.6895C39.5428 49.6895 40.0195 49.8028 40.4462 50.0295C40.8728 50.2562 41.2062 50.5828 41.4462 51.0095C41.6928 51.4295 41.8162 51.9195 41.8162 52.4795ZM39.0262 50.8695C38.6728 50.8695 38.3762 50.9695 38.1362 51.1695C37.8962 51.3695 37.7495 51.6428 37.6962 51.9895H40.3462C40.2928 51.6495 40.1462 51.3795 39.9062 51.1795C39.6662 50.9728 39.3728 50.8695 39.0262 50.8695ZM48.8668 49.6895C49.3668 49.6895 49.8201 49.8062 50.2268 50.0395C50.6401 50.2662 50.9635 50.5895 51.1968 51.0095C51.4301 51.4228 51.5468 51.9062 51.5468 52.4595C51.5468 53.0128 51.4301 53.4995 51.1968 53.9195C50.9635 54.3328 50.6401 54.6562 50.2268 54.8895C49.8201 55.1162 49.3668 55.2295 48.8668 55.2295C48.1801 55.2295 47.6401 55.0128 47.2468 54.5795V57.0895H45.6868V49.7695H47.1768V50.3895C47.5635 49.9228 48.1268 49.6895 48.8668 49.6895ZM48.5968 53.9495C48.9968 53.9495 49.3235 53.8162 49.5768 53.5495C49.8368 53.2762 49.9668 52.9128 49.9668 52.4595C49.9668 52.0062 49.8368 51.6462 49.5768 51.3795C49.3235 51.1062 48.9968 50.9695 48.5968 50.9695C48.1968 50.9695 47.8668 51.1062 47.6068 51.3795C47.3535 51.6462 47.2268 52.0062 47.2268 52.4595C47.2268 52.9128 47.3535 53.2762 47.6068 53.5495C47.8668 53.8162 48.1968 53.9495 48.5968 53.9495ZM52.5911 47.7295H54.1511V55.1495H52.5911V47.7295ZM57.7689 49.6895C58.6022 49.6895 59.2422 49.8895 59.6889 50.2895C60.1356 50.6828 60.3589 51.2795 60.3589 52.0795V55.1495H58.8989V54.4795C58.6056 54.9795 58.0589 55.2295 57.2589 55.2295C56.8456 55.2295 56.4856 55.1595 56.1789 55.0195C55.8789 54.8795 55.6489 54.6862 55.4889 54.4395C55.3289 54.1928 55.2489 53.9128 55.2489 53.5995C55.2489 53.0995 55.4356 52.7062 55.8089 52.4195C56.1889 52.1328 56.7722 51.9895 57.5589 51.9895H58.7989C58.7989 51.6495 58.6956 51.3895 58.4889 51.2095C58.2822 51.0228 57.9722 50.9295 57.5589 50.9295C57.2722 50.9295 56.9889 50.9762 56.7089 51.0695C56.4356 51.1562 56.2022 51.2762 56.0089 51.4295L55.4489 50.3395C55.7422 50.1328 56.0922 49.9728 56.4989 49.8595C56.9122 49.7462 57.3356 49.6895 57.7689 49.6895ZM57.6489 54.1795C57.9156 54.1795 58.1522 54.1195 58.3589 53.9995C58.5656 53.8728 58.7122 53.6895 58.7989 53.4495V52.8995H57.7289C57.0889 52.8995 56.7689 53.1095 56.7689 53.5295C56.7689 53.7295 56.8456 53.8895 56.9989 54.0095C57.1589 54.1228 57.3756 54.1795 57.6489 54.1795ZM67.0131 49.7695L64.5831 55.4795C64.3365 56.0995 64.0298 56.5362 63.6631 56.7895C63.3031 57.0428 62.8665 57.1695 62.3531 57.1695C62.0731 57.1695 61.7965 57.1262 61.5231 57.0395C61.2498 56.9528 61.0265 56.8328 60.8531 56.6795L61.4231 55.5695C61.5431 55.6762 61.6798 55.7595 61.8331 55.8195C61.9931 55.8795 62.1498 55.9095 62.3031 55.9095C62.5165 55.9095 62.6898 55.8562 62.8231 55.7495C62.9565 55.6495 63.0765 55.4795 63.1831 55.2395L63.2031 55.1895L60.8731 49.7695H62.4831L63.9931 53.4195L65.5131 49.7695H67.0131Z" fill="#879EC1"/>
<defs>
<clipPath id="clip0_7480_1220">
<rect width="22.0002" height="22.0002" fill="white" transform="translate(24.996 13.1493)"/>
</clipPath>
</defs>
</svg>
