<svg width="71" height="71" viewBox="0 0 71 71" fill="none" xmlns="http://www.w3.org/2000/svg">
<path d="M42.0006 24.8382C41.9719 22.0503 44.2736 20.7161 44.3756 20.6492C43.0829 18.7603 41.0713 18.5005 40.3524 18.4718C38.642 18.2965 37.0114 19.4792 36.1411 19.4792C35.2739 19.4792 33.9318 18.4957 32.5115 18.5212C30.6434 18.5499 28.9235 19.6083 27.9607 21.2788C26.0208 24.6453 27.4634 29.6313 29.3538 32.365C30.2783 33.7008 31.3814 35.2008 32.8271 35.1482C34.2203 35.0924 34.7463 34.246 36.4312 34.246C38.116 34.246 38.5894 35.1482 40.0623 35.1211C41.5622 35.0924 42.5106 33.7582 43.4272 32.4192C44.4888 30.8683 44.9255 29.3652 44.9526 29.2902C44.9176 29.2711 42.0309 28.1665 42.0006 24.8382Z" fill="#879EC1"/>
<path d="M39.2299 16.6625C39.9967 15.7332 40.5163 14.4389 40.3744 13.1494C39.2666 13.194 37.9293 13.8842 37.1338 14.8151C36.4213 15.6392 35.8013 16.9542 35.967 18.2183C37.2008 18.3155 38.4632 17.5902 39.2299 16.6625Z" fill="#879EC1"/>
<path d="M15.4361 53.6494H12.1861L11.5661 55.1494H9.90609L13.0261 48.1494H14.6261L17.7561 55.1494H16.0561L15.4361 53.6494ZM14.9261 52.4194L13.8161 49.7394L12.7061 52.4194H14.9261ZM21.5523 49.6894C22.0523 49.6894 22.5057 49.8061 22.9123 50.0394C23.3257 50.2661 23.649 50.5894 23.8823 51.0094C24.1157 51.4228 24.2323 51.9061 24.2323 52.4594C24.2323 53.0128 24.1157 53.4994 23.8823 53.9194C23.649 54.3328 23.3257 54.6561 22.9123 54.8894C22.5057 55.1161 22.0523 55.2294 21.5523 55.2294C20.8657 55.2294 20.3257 55.0128 19.9323 54.5794V57.0894H18.3723V49.7694H19.8623V50.3894C20.249 49.9228 20.8123 49.6894 21.5523 49.6894ZM21.2823 53.9494C21.6823 53.9494 22.009 53.8161 22.2623 53.5494C22.5223 53.2761 22.6523 52.9128 22.6523 52.4594C22.6523 52.0061 22.5223 51.6461 22.2623 51.3794C22.009 51.1061 21.6823 50.9694 21.2823 50.9694C20.8823 50.9694 20.5523 51.1061 20.2923 51.3794C20.039 51.6461 19.9123 52.0061 19.9123 52.4594C19.9123 52.9128 20.039 53.2761 20.2923 53.5494C20.5523 53.8161 20.8823 53.9494 21.2823 53.9494ZM28.4566 49.6894C28.9566 49.6894 29.41 49.8061 29.8166 50.0394C30.23 50.2661 30.5533 50.5894 30.7866 51.0094C31.02 51.4228 31.1366 51.9061 31.1366 52.4594C31.1366 53.0128 31.02 53.4994 30.7866 53.9194C30.5533 54.3328 30.23 54.6561 29.8166 54.8894C29.41 55.1161 28.9566 55.2294 28.4566 55.2294C27.77 55.2294 27.23 55.0128 26.8366 54.5794V57.0894H25.2766V49.7694H26.7666V50.3894C27.1533 49.9228 27.7166 49.6894 28.4566 49.6894ZM28.1866 53.9494C28.5866 53.9494 28.9133 53.8161 29.1666 53.5494C29.4266 53.2761 29.5566 52.9128 29.5566 52.4594C29.5566 52.0061 29.4266 51.6461 29.1666 51.3794C28.9133 51.1061 28.5866 50.9694 28.1866 50.9694C27.7866 50.9694 27.4566 51.1061 27.1966 51.3794C26.9433 51.6461 26.8166 52.0061 26.8166 52.4594C26.8166 52.9128 26.9433 53.2761 27.1966 53.5494C27.4566 53.8161 27.7866 53.9494 28.1866 53.9494ZM37.423 55.2694C36.8696 55.2694 36.333 55.1961 35.813 55.0494C35.2996 54.8961 34.8863 54.6994 34.573 54.4594L35.123 53.2394C35.423 53.4594 35.7796 53.6361 36.193 53.7694C36.6063 53.9028 37.0196 53.9694 37.433 53.9694C37.893 53.9694 38.233 53.9028 38.453 53.7694C38.673 53.6294 38.783 53.4461 38.783 53.2194C38.783 53.0528 38.7163 52.9161 38.583 52.8094C38.4563 52.6961 38.2896 52.6061 38.083 52.5394C37.883 52.4728 37.6096 52.3994 37.263 52.3194C36.7296 52.1928 36.293 52.0661 35.953 51.9394C35.613 51.8128 35.3196 51.6094 35.073 51.3294C34.833 51.0494 34.713 50.6761 34.713 50.2094C34.713 49.8028 34.823 49.4361 35.043 49.1094C35.263 48.7761 35.593 48.5128 36.033 48.3194C36.4796 48.1261 37.023 48.0294 37.663 48.0294C38.1096 48.0294 38.5463 48.0828 38.973 48.1894C39.3996 48.2961 39.773 48.4494 40.093 48.6494L39.593 49.8794C38.9463 49.5128 38.2996 49.3294 37.653 49.3294C37.1996 49.3294 36.863 49.4028 36.643 49.5494C36.4296 49.6961 36.323 49.8894 36.323 50.1294C36.323 50.3694 36.4463 50.5494 36.693 50.6694C36.9463 50.7828 37.3296 50.8961 37.843 51.0094C38.3763 51.1361 38.813 51.2628 39.153 51.3894C39.493 51.5161 39.783 51.7161 40.023 51.9894C40.2696 52.2628 40.393 52.6328 40.393 53.0994C40.393 53.4994 40.2796 53.8661 40.053 54.1994C39.833 54.5261 39.4996 54.7861 39.053 54.9794C38.6063 55.1728 38.063 55.2694 37.423 55.2694ZM44.8599 54.8894C44.7066 55.0028 44.5166 55.0894 44.2899 55.1494C44.0699 55.2028 43.8366 55.2294 43.5899 55.2294C42.9499 55.2294 42.4533 55.0661 42.0999 54.7394C41.7533 54.4128 41.5799 53.9328 41.5799 53.2994V51.0894H40.7499V49.8894H41.5799V48.5794H43.1399V49.8894H44.4799V51.0894H43.1399V53.2794C43.1399 53.5061 43.1966 53.6828 43.3099 53.8094C43.4299 53.9294 43.5966 53.9894 43.8099 53.9894C44.0566 53.9894 44.2666 53.9228 44.4399 53.7894L44.8599 54.8894ZM48.1296 55.2294C47.5629 55.2294 47.0529 55.1128 46.5996 54.8794C46.1529 54.6394 45.8029 54.3094 45.5496 53.8894C45.2963 53.4694 45.1696 52.9928 45.1696 52.4594C45.1696 51.9261 45.2963 51.4494 45.5496 51.0294C45.8029 50.6094 46.1529 50.2828 46.5996 50.0494C47.0529 49.8094 47.5629 49.6894 48.1296 49.6894C48.6963 49.6894 49.2029 49.8094 49.6496 50.0494C50.0963 50.2828 50.4463 50.6094 50.6996 51.0294C50.9529 51.4494 51.0796 51.9261 51.0796 52.4594C51.0796 52.9928 50.9529 53.4694 50.6996 53.8894C50.4463 54.3094 50.0963 54.6394 49.6496 54.8794C49.2029 55.1128 48.6963 55.2294 48.1296 55.2294ZM48.1296 53.9494C48.5296 53.9494 48.8563 53.8161 49.1096 53.5494C49.3696 53.2761 49.4996 52.9128 49.4996 52.4594C49.4996 52.0061 49.3696 51.6461 49.1096 51.3794C48.8563 51.1061 48.5296 50.9694 48.1296 50.9694C47.7296 50.9694 47.3996 51.1061 47.1396 51.3794C46.8796 51.6461 46.7496 52.0061 46.7496 52.4594C46.7496 52.9128 46.8796 53.2761 47.1396 53.5494C47.3996 53.8161 47.7296 53.9494 48.1296 53.9494ZM53.6123 50.4794C53.799 50.2194 54.049 50.0228 54.3623 49.8894C54.6823 49.7561 55.049 49.6894 55.4623 49.6894V51.1294C55.289 51.1161 55.1723 51.1094 55.1123 51.1094C54.6657 51.1094 54.3157 51.2361 54.0623 51.4894C53.809 51.7361 53.6823 52.1094 53.6823 52.6094V55.1494H52.1223V49.7694H53.6123V50.4794ZM61.6111 52.4794C61.6111 52.4994 61.6011 52.6394 61.5811 52.8994H57.5111C57.5844 53.2328 57.7578 53.4961 58.0311 53.6894C58.3044 53.8828 58.6444 53.9794 59.0511 53.9794C59.3311 53.9794 59.5778 53.9394 59.7911 53.8594C60.0111 53.7728 60.2144 53.6394 60.4011 53.4594L61.2311 54.3594C60.7244 54.9394 59.9844 55.2294 59.0111 55.2294C58.4044 55.2294 57.8678 55.1128 57.4011 54.8794C56.9344 54.6394 56.5744 54.3094 56.3211 53.8894C56.0678 53.4694 55.9411 52.9928 55.9411 52.4594C55.9411 51.9328 56.0644 51.4594 56.3111 51.0394C56.5644 50.6128 56.9078 50.2828 57.3411 50.0494C57.7811 49.8094 58.2711 49.6894 58.8111 49.6894C59.3378 49.6894 59.8144 49.8028 60.2411 50.0294C60.6678 50.2561 61.0011 50.5828 61.2411 51.0094C61.4878 51.4294 61.6111 51.9194 61.6111 52.4794ZM58.8211 50.8694C58.4678 50.8694 58.1711 50.9694 57.9311 51.1694C57.6911 51.3694 57.5444 51.6428 57.4911 51.9894H60.1411C60.0878 51.6494 59.9411 51.3794 59.7011 51.1794C59.4611 50.9728 59.1678 50.8694 58.8211 50.8694Z" fill="#879EC1"/>
</svg>
