<svg width="260" height="260" viewBox="0 0 260 260" fill="none" xmlns="http://www.w3.org/2000/svg">
<circle cx="130" cy="130" r="88.6112" fill="url(#paint0_linear_5611_30845)"/>
<g opacity="0.32">
<path d="M84.5911 99.6946C79.1377 113.16 80.8582 127.36 74.1693 124.651C67.4805 121.943 66.479 108.83 71.9325 95.3648C77.3859 81.8991 87.2291 73.1791 93.9179 75.8879C100.607 78.5968 90.0445 86.2289 84.5911 99.6946Z" fill="#E5E5E5"/>
<path d="M80.3923 138.029C80.8796 142.463 78.8264 146.327 75.8065 146.659C72.7865 146.991 69.9434 143.665 69.4562 139.23C68.9689 134.796 71.0221 130.932 74.0421 130.6C77.062 130.269 79.9051 133.594 80.3923 138.029Z" fill="#E5E5E5"/>
</g>
<path d="M103.838 197.506C100.759 195.727 102.235 192.745 109.714 190.266C125.484 186.805 122.823 193.803 145.517 191.11C168.211 188.418 180.175 179.062 186.201 172.908C191.022 167.984 195.478 161.322 195.264 163.672C194.238 168.673 185.956 181.853 161.031 194.572C129.875 210.471 108.56 200.234 103.838 197.506Z" fill="#080F1B" fill-opacity="0.11"/>
<defs>
<linearGradient id="paint0_linear_5611_30845" x1="36.0288" y1="-21.5474" x2="170.078" y2="206.833" gradientUnits="userSpaceOnUse">
<stop offset="0.394669" stop-color="#FF3A3A"/>
<stop offset="0.72037" stop-color="#D64D12"/>
<stop offset="0.749987" stop-color="#70AF09"/>
</linearGradient>
</defs>
</svg>
