<svg width="84" height="84" viewBox="0 0 84 84" fill="none" xmlns="http://www.w3.org/2000/svg">
<circle cx="42" cy="41.6446" r="28.2874" fill="url(#paint0_linear_7480_1232)"/>
<path fill-rule="evenodd" clip-rule="evenodd" d="M10.0774 51.6978C10.5644 51.096 11.4974 51.1872 11.883 51.8585C12.1303 52.2892 12.0642 52.8296 11.7349 53.2013C9.81566 55.3686 8.98787 57.0549 9.5397 58.0159C11.3127 61.1034 26.656 55.5342 43.81 45.5767C44.4021 45.233 44.9886 44.8885 45.5691 44.5437C45.7703 44.4242 45.8861 44.2028 45.8861 43.9688C45.8861 40.0045 49.0998 36.7908 53.0641 36.7908C55.1895 36.7908 57.4915 36.8539 59.2061 35.598C67.7566 29.3354 72.8345 24.0023 71.6598 21.9565C71.1329 21.0391 69.4081 20.8859 66.7936 21.3851C66.3226 21.475 65.8408 21.2661 65.602 20.8502C65.2268 20.1969 65.6099 19.3682 66.3554 19.2591C71.491 18.5076 75.1339 19.1352 76.4107 21.3588C78.8022 25.5234 72.2217 34.115 60.7662 42.8511C60.4222 43.1134 60.242 43.5361 60.242 43.9688C60.242 47.933 57.0283 51.1467 53.0641 51.1467C52.865 51.1467 52.6678 51.1386 52.4729 51.1227C50.7064 50.9787 48.8255 50.9048 47.2927 51.7946C27.9923 62.9981 9.73663 67.536 6.51762 61.9303C5.19655 59.6298 6.61335 55.9783 10.0774 51.6978Z" fill="#D2E1F8"/>
<ellipse cx="53.0641" cy="43.9688" rx="3.58896" ry="3.58896" fill="#70AF09"/>
<g opacity="0.32">
<path d="M27.5041 31.9702C25.7632 36.2689 26.3124 40.802 24.1771 39.9372C22.0419 39.0725 21.7221 34.8867 23.463 30.588C25.2039 26.2894 28.3462 23.5057 30.4815 24.3704C32.6168 25.2352 29.245 27.6716 27.5041 31.9702Z" fill="#E5E5E5"/>
<path d="M26.1637 44.2077C26.3192 45.6233 25.6638 46.8567 24.6998 46.9626C23.7357 47.0686 22.8281 46.0069 22.6725 44.5913C22.517 43.1757 23.1724 41.9423 24.1365 41.8363C25.1006 41.7304 26.0082 42.7921 26.1637 44.2077Z" fill="#E5E5E5"/>
</g>
<path d="M33.6483 63.1946C32.6653 62.6267 33.1364 61.6748 35.524 60.8835C40.5584 59.7784 39.7089 62.0125 46.9535 61.153C54.1981 60.2934 58.0174 57.3068 59.9411 55.3422C61.48 53.7705 62.9026 51.6436 62.8343 52.394C62.5069 53.9902 59.8628 58.1978 51.9061 62.2581C41.9601 67.3334 35.1556 64.0654 33.6483 63.1946Z" fill="#080F1B" fill-opacity="0.11"/>
<path d="M65.634 25.9828C66.5675 25.3642 66.828 24.101 66.1485 23.2108C61.8298 17.5529 55.6442 13.5721 48.6575 12.0029C41.0092 10.2851 32.993 11.5901 26.2845 15.6451C19.5759 19.7001 14.6945 26.1912 12.6604 33.7615C10.8024 40.677 11.4518 48.0041 14.4541 54.4578C14.9265 55.4732 16.1659 55.8296 17.1476 55.2906C18.1292 54.7516 18.4802 53.5215 18.0183 52.5014C15.5137 46.9694 14.9905 40.7185 16.577 34.8139C18.3395 28.2541 22.5694 22.6295 28.3823 19.1158C34.1953 15.6021 41.1415 14.4713 47.7688 15.9598C53.7342 17.2997 59.0257 20.6684 62.7596 25.4573C63.4482 26.3404 64.7005 26.6014 65.634 25.9828Z" fill="#D2E1F8"/>
<path d="M24.6744 64.0875C23.9901 64.9739 24.1505 66.2536 25.0806 66.8773C29.4297 69.7935 34.4695 71.5428 39.7138 71.9386C45.6337 72.3854 51.5548 71.0878 56.7454 68.2064C61.9359 65.3249 66.1685 60.9857 68.9201 55.7251C71.3576 51.0649 72.5382 45.8624 72.3631 40.629C72.3257 39.5097 71.3245 38.6969 70.2102 38.8089C69.0959 38.9209 68.2917 39.9156 68.3176 41.0351C68.4205 45.4785 67.3966 49.8877 65.3265 53.8455C62.9422 58.4039 59.2747 62.1638 54.777 64.6606C50.2793 67.1574 45.1487 68.2817 40.019 67.8946C35.5651 67.5585 31.2815 66.0957 27.5648 63.6585C26.6283 63.0444 25.3587 63.201 24.6744 64.0875Z" fill="#D2E1F8"/>
<defs>
<linearGradient id="paint0_linear_7480_1232" x1="12.0015" y1="-6.73391" x2="54.7942" y2="66.1721" gradientUnits="userSpaceOnUse">
<stop offset="0.394669" stop-color="#FF3A3A"/>
<stop offset="0.72037" stop-color="#D64D12"/>
<stop offset="0.749987" stop-color="#70AF09"/>
</linearGradient>
</defs>
</svg>
