<svg width="112" height="12" viewBox="0 0 112 12" fill="none" xmlns="http://www.w3.org/2000/svg">
<path d="M5.27831 0.0999992C6.33231 0.0999992 7.24464 0.275666 8.01531 0.626999C8.79731 0.978333 9.39798 1.477 9.81731 2.123C10.2366 2.769 10.4463 3.534 10.4463 4.418C10.4463 5.29067 10.2366 6.05567 9.81731 6.713C9.39798 7.359 8.79731 7.85767 8.01531 8.209C7.24464 8.549 6.33231 8.719 5.27831 8.719H2.88131V12H0.127309V0.0999992H5.27831ZM5.12531 6.475C5.95264 6.475 6.58164 6.29933 7.01231 5.948C7.44298 5.58533 7.65831 5.07533 7.65831 4.418C7.65831 3.74933 7.44298 3.23933 7.01231 2.888C6.58164 2.52533 5.95264 2.344 5.12531 2.344H2.88131V6.475H5.12531ZM12.4125 0.0999992H15.1665V9.756H21.1335V12H12.4125V0.0999992ZM30.6088 9.45H25.0838L24.0298 12H21.2078L26.5118 0.0999992H29.2318L34.5528 12H31.6628L30.6088 9.45ZM29.7418 7.359L27.8548 2.803L25.9678 7.359H29.7418ZM46.7015 0.0999992V12H44.4405L38.5075 4.775V12H35.7875V0.0999992H38.0655L43.9815 7.325V0.0999992H46.7015ZM58.731 9.79V12H49.517V0.0999992H58.51V2.31H52.254V4.894H57.779V7.036H52.254V9.79H58.731ZM63.3872 2.344H59.5792V0.0999992H69.9492V2.344H66.1412V12H63.3872V2.344Z" fill="#233654"/>
<path d="M87.6865 0.0999992L82.5355 12H79.8155L74.6815 0.0999992H77.6565L81.2775 8.6L84.9495 0.0999992H87.6865ZM93.831 0.0999992C94.885 0.0999992 95.7974 0.275666 96.568 0.626999C97.35 0.978333 97.9507 1.477 98.37 2.123C98.7894 2.769 98.999 3.534 98.999 4.418C98.999 5.29067 98.7894 6.05567 98.37 6.713C97.9507 7.359 97.35 7.85767 96.568 8.209C95.7974 8.549 94.885 8.719 93.831 8.719H91.434V12H88.68V0.0999992H93.831ZM93.678 6.475C94.5054 6.475 95.1344 6.29933 95.565 5.948C95.9957 5.58533 96.211 5.07533 96.211 4.418C96.211 3.74933 95.9957 3.23933 95.565 2.888C95.1344 2.52533 94.5054 2.344 93.678 2.344H91.434V6.475H93.678ZM111.879 0.0999992V12H109.618L103.685 4.775V12H100.965V0.0999992H103.243L109.159 7.325V0.0999992H111.879Z" fill="#71B00A"/>
</svg>
