<svg width="41" height="40" viewBox="0 0 41 40" fill="none" xmlns="http://www.w3.org/2000/svg">
<g clip-path="url(#clip0_5433_2710)">
<path d="M1.86867 19.5576L0.673828 20.0641C0.67375 20.367 0.790234 20.6675 1.0175 20.8939L19.8493 39.6598C20.0691 39.8789 20.4466 39.999 20.6682 40C20.8934 40.001 21.2784 39.8825 21.502 39.6596L40.3306 20.8819C40.5573 20.6558 40.6737 20.356 40.674 20.0538L39.6351 19.5577C39.0558 19.5577 33.6753 19.5577 27.1379 19.5577L20.1277 21.8206L14.1989 19.5577C8.0493 19.5576 2.92727 19.5576 1.86867 19.5576Z" fill="#FFB739"/>
<path d="M40.6735 20.0538C40.6735 20.3558 40.5573 20.6555 40.3302 20.8817L21.5017 39.6595C21.2802 39.881 20.8985 39.9997 20.6738 39.9997V21.6441L27.1378 19.5576H39.635L40.6735 20.0538Z" fill="#FF9441"/>
<path d="M14.1987 19.5576L20.6738 39.9997L27.1377 19.5576H14.1987Z" fill="#FF9441"/>
<path d="M27.1377 19.5576L20.6738 39.9997V19.5576H27.1377Z" fill="#FF7149"/>
<path d="M40.4775 19.4033L34.2098 10.0124C34.123 9.88259 34.0113 9.77228 33.8827 9.68712L33.3145 9.95993L21.7581 10.032L20.6738 9.49173L19.7976 10.0442L8.26719 10.116L7.46258 9.68829C7.33484 9.77321 7.22352 9.88314 7.13695 10.0131L0.869687 19.4157C0.737734 19.6137 0.673828 19.8395 0.673828 20.0642C2.94422 20.0635 37.7415 20.0544 40.6738 20.0536C40.674 19.8284 40.6099 19.6017 40.4775 19.4033Z" fill="#FFD17E"/>
<path d="M40.6735 20.0538C39.2206 20.0538 29.9413 20.057 20.6738 20.0593V9.49173L21.7584 10.0317L33.3146 9.95985L33.8827 9.68673C34.0114 9.77259 34.123 9.88259 34.2096 10.0121L40.4777 19.403C40.6103 19.602 40.6743 19.8283 40.6735 20.0538Z" fill="#FFB739"/>
<path d="M8.11074 9.49173C7.87667 9.49173 7.65214 9.56212 7.46277 9.68814L14.4046 20.0605H14.4054L20.6734 9.49173H8.11074Z" fill="#FFB739"/>
<path d="M26.9445 20.0573L33.8824 9.68696C33.6935 9.56173 33.4696 9.49181 33.2363 9.49181H20.6735L26.9395 20.0574H26.9445V20.0573Z" fill="#FF9441"/>
<path d="M13.6757 28.228C11.7167 28.228 10.1229 26.6343 10.1229 24.6753C10.1229 24.0281 9.59823 23.5034 8.95105 23.5034C8.30386 23.5034 7.77917 24.0281 7.77917 24.6753C7.77917 26.6244 6.19503 28.228 4.22644 28.228C3.57925 28.228 3.05457 28.7527 3.05457 29.3999C3.05457 30.0471 3.57925 30.5718 4.22644 30.5718C6.18542 30.5718 7.77917 32.1655 7.77917 34.1245C7.77917 34.7717 8.30386 35.2964 8.95105 35.2964C9.59823 35.2964 10.1229 34.7717 10.1229 34.1245C10.1229 32.1755 11.7069 30.5718 13.6757 30.5718C14.3229 30.5718 14.8476 30.0471 14.8476 29.3999C14.8476 28.7527 14.3229 28.228 13.6757 28.228Z" fill="#FFD17E"/>
<path d="M31.6371 4.72461C29.6781 4.72461 28.0844 3.13086 28.0844 1.17188C28.0844 0.524687 27.5597 0 26.9125 0C26.2653 0 25.7406 0.524687 25.7406 1.17188C25.7406 3.13086 24.1469 4.72461 22.1879 4.72461C21.5407 4.72461 21.016 5.2493 21.016 5.89648C21.016 6.54367 21.5407 7.06836 22.1879 7.06836C24.1469 7.06836 25.7406 8.66211 25.7406 10.6211C25.7406 11.2683 26.2653 11.793 26.9125 11.793C27.5597 11.793 28.0844 11.2683 28.0844 10.6211C28.0844 8.66211 29.678 7.06836 31.6371 7.06836C32.2843 7.06836 32.809 6.54367 32.809 5.89648C32.809 5.2493 32.2843 4.72461 31.6371 4.72461Z" fill="#FFB739"/>
</g>
<defs>
<clipPath id="clip0_5433_2710">
<rect width="40" height="40" fill="white" transform="translate(0.673828)"/>
</clipPath>
</defs>
</svg>
