<svg width="260" height="260" viewBox="0 0 260 260" fill="none" xmlns="http://www.w3.org/2000/svg">
<path d="M204.034 80.9389C206.958 79.001 207.774 75.0442 205.646 72.2556C192.117 54.5318 172.741 42.0621 150.855 37.1465C126.896 31.7654 101.785 35.8533 80.7706 48.5557C59.756 61.2581 44.4646 81.5917 38.0929 105.306C32.2725 126.969 34.3069 149.921 43.7116 170.138C45.1913 173.318 49.074 174.435 52.149 172.747V172.747C55.2241 171.058 56.3236 167.205 54.8767 164.009C47.031 146.68 45.392 127.099 50.3617 108.602C55.8828 88.0538 69.1329 70.4345 87.3423 59.4278C105.552 48.421 127.311 44.8788 148.071 49.5416C166.758 53.7387 183.333 64.2913 195.03 79.2927C197.187 82.0592 201.11 82.8767 204.034 80.9389V80.9389Z" fill="#D2E1F8"/>
<path d="M75.727 200.303C73.5833 203.08 74.0858 207.088 76.9995 209.042C90.6231 218.177 106.41 223.657 122.838 224.897C141.383 226.296 159.931 222.232 176.19 213.205C192.45 204.179 205.709 190.587 214.328 174.108C221.964 159.509 225.662 143.212 225.113 126.818C224.996 123.312 221.86 120.766 218.369 121.117V121.117C214.879 121.468 212.359 124.584 212.441 128.091C212.763 142.01 209.556 155.822 203.071 168.22C195.602 182.499 184.113 194.277 170.024 202.098C155.935 209.92 139.863 213.442 123.794 212.229C109.843 211.176 96.424 206.594 84.7812 198.959C81.8476 197.035 77.8708 197.526 75.727 200.303V200.303Z" fill="#D2E1F8"/>
</svg>
