<svg width="100" height="100" viewBox="0 0 100 100" fill="none" xmlns="http://www.w3.org/2000/svg">
<path d="M0 0H100V100H0V0Z" fill="none"/>
<path d="M33.6899 8.6499H32.06C31.8982 8.6499 31.743 8.71417 31.6286 8.82857C31.5142 8.94296 31.45 9.09812 31.45 9.2599V10.8899C31.45 11.0517 31.5142 11.2068 31.6286 11.3212C31.743 11.4356 31.8982 11.4999 32.06 11.4999H34.2999V8.6499H33.6899Z" fill="#879EC1"/>
<path d="M34.3 8.6499H37.1501V11.4999H34.3V8.6499Z" fill="#879EC1"/>
<path d="M37.1499 8.6499H39.9999V11.4999H37.1499V8.6499Z" fill="#879EC1"/>
<path d="M42.24 8.6499C42.4018 8.6499 42.5569 8.71417 42.6713 8.82857C42.7857 8.94296 42.85 9.09812 42.85 9.2599V11.4999H40V8.6499H42.24Z" fill="#879EC1"/>
<path d="M45.0901 11.4999C45.2519 11.4999 45.407 11.4356 45.5214 11.3212C45.6358 11.2068 45.7001 11.0517 45.7001 10.8899V11.4999H45.0901Z" fill="#879EC1"/>
<path d="M43.4601 11.4999C43.2983 11.4999 43.1432 11.4356 43.0288 11.3212C42.9144 11.2068 42.8501 11.0517 42.8501 10.8899V11.4999H43.4601Z" fill="#879EC1"/>
<path d="M46.31 8.6499C46.1482 8.6499 45.993 8.71417 45.8786 8.82857C45.7642 8.94296 45.7 9.09812 45.7 9.2599V11.4999H48.5499V8.6499H46.31Z" fill="#879EC1"/>
<path d="M48.55 8.6499H51.4001V11.4999H48.55V8.6499Z" fill="#879EC1"/>
<path d="M53.6399 8.6499C53.8017 8.6499 53.9568 8.71417 54.0712 8.82857C54.1856 8.94296 54.2499 9.09812 54.2499 9.2599V11.4999H51.3999V8.6499H53.6399Z" fill="#879EC1"/>
<path d="M57.7101 8.6499C57.5483 8.6499 57.3932 8.71417 57.2788 8.82857C57.1644 8.94296 57.1001 9.09812 57.1001 9.2599V11.4999H60.0001V8.6499H57.7101Z" fill="#879EC1"/>
<path d="M60 8.6499H62.8V11.4999H60V8.6499Z" fill="#879EC1"/>
<path d="M62.8 8.6499H65.6501V11.4999H62.8V8.6499Z" fill="#879EC1"/>
<path d="M66.2599 11.4999H67.8899C68.0517 11.4999 68.2068 11.4356 68.3212 11.3212C68.4356 11.2068 68.4999 11.0517 68.4999 10.8899V9.2599C68.4999 9.09812 68.4356 8.94296 68.3212 8.82857C68.2068 8.71417 68.0517 8.6499 67.8899 8.6499H65.6499V11.4999H66.2599Z" fill="#879EC1"/>
<path d="M39.9999 12.11V11.5H39.3899C39.5517 11.5 39.7068 11.5643 39.8212 11.6787C39.9356 11.7931 39.9999 11.9482 39.9999 12.11V12.11Z" fill="#879EC1"/>
<path d="M40 11.5H42.85V14.35H40V11.5Z" fill="#879EC1"/>
<path d="M42.8501 11.5H45.7001V14.35H42.8501V11.5Z" fill="#879EC1"/>
<path d="M45.7 11.5H48.5499V14.35H45.7V11.5Z" fill="#879EC1"/>
<path d="M48.55 11.5H51.4001V14.35H48.55V11.5Z" fill="#879EC1"/>
<path d="M54.2499 13.74C54.2499 13.9018 54.1856 14.0569 54.0712 14.1713C53.9568 14.2857 53.8017 14.35 53.6399 14.35H51.3999V11.5H54.2499V13.74Z" fill="#879EC1"/>
<path d="M57.1001 11.5H60.0001V14.35H57.1001V11.5Z" fill="#879EC1"/>
<path d="M60.56 11.5H60V12.11C60 11.9482 60.0643 11.7931 60.1787 11.6787C60.2931 11.5643 60.4482 11.5 60.61 11.5H60.56Z" fill="#879EC1"/>
<path d="M62.7999 12.11V11.5H62.1899C62.3517 11.5 62.5069 11.5643 62.6213 11.6787C62.7357 11.7931 62.7999 11.9482 62.7999 12.11Z" fill="#879EC1"/>
<path d="M60.56 14.35C60.3982 14.35 60.243 14.2857 60.1286 14.1713C60.0142 14.0569 59.95 13.9018 59.95 13.74V14.35H60.56Z" fill="#879EC1"/>
<path d="M62.8 13.74C62.8 13.9018 62.8643 14.0569 62.9787 14.1713C63.0931 14.2857 63.2483 14.35 63.41 14.35H65C65.1618 14.35 65.317 14.2857 65.4314 14.1713C65.5458 14.0569 65.6101 13.9018 65.6101 13.74V11.5H62.8V13.74Z" fill="#879EC1"/>
<path d="M66.2599 11.5H65.6499V12.11C65.6499 11.9482 65.7142 11.7931 65.8286 11.6787C65.943 11.5643 66.0981 11.5 66.2599 11.5V11.5Z" fill="#879EC1"/>
<path d="M36.5401 14.3501H34.91C34.5732 14.3501 34.3 14.6232 34.3 14.9601V16.5901C34.3 16.927 34.5732 17.2001 34.91 17.2001H36.5401C36.8769 17.2001 37.1501 16.927 37.1501 16.5901V14.9601C37.1501 14.6232 36.8769 14.3501 36.5401 14.3501Z" fill="#879EC1"/>
<path d="M39.3899 17.2001C39.5517 17.2001 39.7068 17.1358 39.8212 17.0214C39.9356 16.907 39.9999 16.7519 39.9999 16.5901V17.2001H39.3899Z" fill="#879EC1"/>
<path d="M40 14.3501H42.85V17.2001H40V14.3501Z" fill="#879EC1"/>
<path d="M43.4601 14.3501H42.8501V15.0001C42.8501 14.8383 42.9144 14.6832 43.0288 14.5688C43.1432 14.4544 43.2983 14.3901 43.4601 14.3901V14.3501Z" fill="#879EC1"/>
<path d="M45.7001 14.9999V14.3899H45.0901C45.2519 14.3899 45.407 14.4542 45.5214 14.5686C45.6358 14.683 45.7001 14.8381 45.7001 14.9999Z" fill="#879EC1"/>
<path d="M45.7 16.5901C45.7 16.7519 45.7642 16.907 45.8786 17.0214C45.993 17.1358 46.1482 17.2001 46.31 17.2001H48.5499V14.3501H45.7V16.5901Z" fill="#879EC1"/>
<path d="M48.55 14.3501H51.4001V17.2001H48.55V14.3501Z" fill="#879EC1"/>
<path d="M51.9999 14.3501H51.3999V15.0001C51.3999 14.8383 51.4642 14.6832 51.5786 14.5688C51.693 14.4544 51.8481 14.3901 52.0099 14.3901L51.9999 14.3501Z" fill="#879EC1"/>
<path d="M51.9999 17.2001C51.8381 17.2001 51.683 17.1358 51.5686 17.0214C51.4542 16.907 51.3899 16.7519 51.3899 16.5901V17.2001H51.9999Z" fill="#879EC1"/>
<path d="M57.1001 16.5901C57.1001 16.7519 57.1644 16.907 57.2788 17.0214C57.3932 17.1358 57.5483 17.2001 57.7101 17.2001H60.0001V14.3501H57.1001V16.5901Z" fill="#879EC1"/>
<path d="M60.56 17.1999H62.19C62.3518 17.1999 62.5069 17.1356 62.6213 17.0212C62.7357 16.9068 62.8 16.7517 62.8 16.5899V14.9999C62.8 14.8381 62.7357 14.683 62.6213 14.5686C62.5069 14.4542 62.3518 14.3899 62.19 14.3899H60V17.1999H60.56Z" fill="#879EC1"/>
<path d="M67.8899 14.3501H66.2599C65.923 14.3501 65.6499 14.6232 65.6499 14.9601V16.5901C65.6499 16.927 65.923 17.2001 66.2599 17.2001H67.8899C68.2268 17.2001 68.4999 16.927 68.4999 16.5901V14.9601C68.4999 14.6232 68.2268 14.3501 67.8899 14.3501Z" fill="#879EC1"/>
<path d="M37.7599 17.2C37.5981 17.2 37.443 17.2642 37.3286 17.3786C37.2142 17.493 37.1499 17.6482 37.1499 17.8099V20.0499H39.9999V17.2H37.7599Z" fill="#879EC1"/>
<path d="M40 17.2H42.85V20.0499H40V17.2Z" fill="#879EC1"/>
<path d="M43.4601 20.0499C43.2983 20.0499 43.1432 19.9857 43.0288 19.8713C42.9144 19.7569 42.8501 19.6017 42.8501 19.4399V20.0499H43.4601Z" fill="#879EC1"/>
<path d="M48.5499 17.8099V17.2H47.9399C48.1017 17.2 48.2569 17.2642 48.3713 17.3786C48.4857 17.493 48.5499 17.6482 48.5499 17.8099Z" fill="#879EC1"/>
<path d="M48.55 19.44C48.55 19.6017 48.6143 19.7569 48.7287 19.8713C48.8431 19.9857 48.9983 20.0499 49.16 20.0499H51.4001V17.2H48.55V19.44Z" fill="#879EC1"/>
<path d="M51.3999 17.2H54.2499V20.0499H51.3999V17.2Z" fill="#879EC1"/>
<path d="M54.86 20.0499H56.49C56.6518 20.0499 56.8069 19.9857 56.9213 19.8713C57.0357 19.7569 57.1 19.6017 57.1 19.44V17.8099C57.1 17.6482 57.0357 17.493 56.9213 17.3786C56.8069 17.2642 56.6518 17.2 56.49 17.2H54.25V20.0499H54.86Z" fill="#879EC1"/>
<path d="M37.1499 22.2901C37.1499 22.4518 37.2142 22.607 37.3286 22.7214C37.443 22.8358 37.5981 22.9 37.7599 22.9H39.9999V20.05H37.1499V22.2901Z" fill="#879EC1"/>
<path d="M40 20.05H42.85V22.9H40V20.05Z" fill="#879EC1"/>
<path d="M42.8501 20.05H45.7001V22.9H42.8501V20.05Z" fill="#879EC1"/>
<path d="M47.9399 20.05C48.1017 20.05 48.2569 20.1143 48.3713 20.2287C48.4857 20.3431 48.5499 20.4983 48.5499 20.66V22.9H45.7V20.05H47.9399Z" fill="#879EC1"/>
<path d="M51.4 20.66V20.05H50.79C50.9518 20.05 51.107 20.1143 51.2214 20.2287C51.3358 20.3431 51.4 20.4983 51.4 20.66Z" fill="#879EC1"/>
<path d="M49.16 22.9C48.9983 22.9 48.8431 22.8358 48.7287 22.7214C48.6143 22.607 48.55 22.4518 48.55 22.29V22.9H49.16Z" fill="#879EC1"/>
<path d="M51.3999 22.2901C51.3999 22.4518 51.4642 22.607 51.5786 22.7214C51.693 22.8358 51.8481 22.9 52.0099 22.9H53.6399C53.8017 22.9 53.9568 22.8358 54.0712 22.7214C54.1856 22.607 54.2499 22.4518 54.2499 22.2901V20.05H51.3999V22.2901Z" fill="#879EC1"/>
<path d="M54.86 20.05H54.25V20.66C54.25 20.4983 54.3143 20.3431 54.4287 20.2287C54.5431 20.1143 54.6982 20.05 54.86 20.05V20.05Z" fill="#879EC1"/>
<path d="M59.3401 20.05H57.7101C57.5483 20.05 57.3932 20.1143 57.2788 20.2287C57.1644 20.3431 57.1001 20.4983 57.1001 20.66V22.2901C57.1001 22.4518 57.1644 22.607 57.2788 22.7214C57.3932 22.8358 57.5483 22.9 57.7101 22.9H60.0001V20.05H59.3401Z" fill="#879EC1"/>
<path d="M60 20.05H62.8V22.9H60V20.05Z" fill="#879EC1"/>
<path d="M65 20.05C65.1618 20.05 65.317 20.1143 65.4314 20.2287C65.5458 20.3431 65.6101 20.4983 65.6101 20.66V22.9H62.8V20.05H65Z" fill="#879EC1"/>
<path d="M36.5401 22.8999H34.91C34.5732 22.8999 34.3 23.173 34.3 23.5099V25.1399C34.3 25.4768 34.5732 25.7499 34.91 25.7499H36.5401C36.8769 25.7499 37.1501 25.4768 37.1501 25.1399V23.5099C37.1501 23.173 36.8769 22.8999 36.5401 22.8999Z" fill="#879EC1"/>
<path d="M39.9999 23.5099V22.8999H39.3899C39.47 22.8999 39.5493 22.9157 39.6233 22.9463C39.6973 22.977 39.7646 23.0219 39.8212 23.0786C39.8779 23.1352 39.9228 23.2025 39.9535 23.2765C39.9841 23.3505 39.9999 23.4298 39.9999 23.5099V23.5099Z" fill="#879EC1"/>
<path d="M40 25.1399C40 25.3017 40.0643 25.4568 40.1787 25.5712C40.2931 25.6856 40.4482 25.7499 40.61 25.7499H42.24C42.4018 25.7499 42.5569 25.6856 42.6713 25.5712C42.7857 25.4568 42.85 25.3017 42.85 25.1399V22.8999H40V25.1399Z" fill="#879EC1"/>
<path d="M43.4601 22.8999H42.8501V23.5099C42.8501 23.3481 42.9144 23.193 43.0288 23.0786C43.1432 22.9642 43.2983 22.8999 43.4601 22.8999Z" fill="#879EC1"/>
<path d="M45.7001 23.5099V22.8999H45.0901C45.1702 22.8999 45.2495 22.9157 45.3235 22.9463C45.3975 22.977 45.4648 23.0219 45.5214 23.0786C45.5781 23.1352 45.623 23.2025 45.6537 23.2765C45.6843 23.3505 45.7001 23.4298 45.7001 23.5099Z" fill="#879EC1"/>
<path d="M45.7 25.1399C45.7 25.3017 45.7642 25.4568 45.8786 25.5712C45.993 25.6856 46.1482 25.7499 46.31 25.7499H48.5499V22.8999H45.7V25.1399Z" fill="#879EC1"/>
<path d="M50.7901 22.8999C50.9518 22.8999 51.107 22.9642 51.2214 23.0786C51.3358 23.193 51.4001 23.3481 51.4001 23.5099V25.7499H48.55V22.8999H50.7901Z" fill="#879EC1"/>
<path d="M57.1 25.1399V23.5099C57.1 23.3481 57.0357 23.193 56.9213 23.0786C56.8069 22.9642 56.6518 22.8999 56.49 22.8999H54.86C54.6982 22.8999 54.5431 22.9642 54.4287 23.0786C54.3143 23.193 54.25 23.3481 54.25 23.5099V23.5099V25.7499H57.1V25.1399Z" fill="#879EC1"/>
<path d="M62.7999 23.5099V22.8999H62.1899C62.27 22.8999 62.3494 22.9157 62.4234 22.9463C62.4974 22.977 62.5646 23.0219 62.6213 23.0786C62.6779 23.1352 62.7229 23.2025 62.7535 23.2765C62.7842 23.3505 62.7999 23.4298 62.7999 23.5099Z" fill="#879EC1"/>
<path d="M62.8 25.1399C62.8 25.3017 62.8643 25.4568 62.9787 25.5712C63.0931 25.6856 63.2483 25.7499 63.41 25.7499H65C65.1618 25.7499 65.317 25.6856 65.4314 25.5712C65.5458 25.4568 65.6101 25.3017 65.6101 25.1399V22.8999H62.8V25.1399Z" fill="#879EC1"/>
<path d="M34.2999 28V26.36C34.2999 26.1982 34.2357 26.0431 34.1213 25.9287C34.0069 25.8143 33.8517 25.75 33.6899 25.75H32.06C31.8982 25.75 31.743 25.8143 31.6286 25.9287C31.5142 26.0431 31.45 26.1982 31.45 26.36V28.6H34.2999V28Z" fill="#879EC1"/>
<path d="M34.91 28.6C34.75 28.6 34.5963 28.5371 34.4822 28.4249C34.3681 28.3126 34.3027 28.16 34.3 28V28.61L34.91 28.6Z" fill="#879EC1"/>
<path d="M39.3899 25.75H37.7599C37.423 25.75 37.1499 26.0231 37.1499 26.36V27.99C37.1499 28.3269 37.423 28.6 37.7599 28.6H39.3899C39.7268 28.6 39.9999 28.3269 39.9999 27.99V26.36C39.9999 26.0231 39.7268 25.75 39.3899 25.75Z" fill="#879EC1"/>
<path d="M45.7001 28V26.36C45.7001 26.1982 45.6358 26.0431 45.5214 25.9287C45.407 25.8143 45.2519 25.75 45.0901 25.75H43.4601C43.2983 25.75 43.1432 25.8143 43.0288 25.9287C42.9144 26.0431 42.8501 26.1982 42.8501 26.36V28.6H45.7001V28Z" fill="#879EC1"/>
<path d="M48.5499 26.36V25.75H47.9399C48.1017 25.75 48.2569 25.8143 48.3713 25.9287C48.4857 26.0431 48.5499 26.1982 48.5499 26.36Z" fill="#879EC1"/>
<path d="M48.55 25.75H51.4001V28.6H48.55V25.75Z" fill="#879EC1"/>
<path d="M54.25 28C54.25 28.1618 54.3143 28.3169 54.4287 28.4313C54.5431 28.5457 54.6982 28.61 54.86 28.61H56.49C56.6518 28.61 56.8069 28.5457 56.9213 28.4313C57.0357 28.3169 57.1 28.1618 57.1 28V25.75H54.25V28Z" fill="#879EC1"/>
<path d="M62.7999 28V26.36C62.7999 26.1982 62.7357 26.0431 62.6213 25.9287C62.5069 25.8143 62.3517 25.75 62.1899 25.75H60.56C60.3982 25.75 60.243 25.8143 60.1286 25.9287C60.0142 26.0431 59.95 26.1982 59.95 26.36V28.6H62.7999V28Z" fill="#879EC1"/>
<path d="M68.4999 28V26.36C68.4999 26.1982 68.4356 26.0431 68.3212 25.9287C68.2068 25.8143 68.0517 25.75 67.8899 25.75H66.2599C66.0981 25.75 65.943 25.8143 65.8286 25.9287C65.7142 26.0431 65.6499 26.1982 65.6499 26.36V28.6H68.4999V28Z" fill="#879EC1"/>
<path d="M31.45 30.8401C31.45 31.0019 31.5142 31.157 31.6286 31.2714C31.743 31.3858 31.8982 31.4501 32.06 31.4501H34.2999V28.6001H31.45V30.8401Z" fill="#879EC1"/>
<path d="M36.5401 28.6001C36.7018 28.6001 36.857 28.6644 36.9714 28.7788C37.0858 28.8932 37.1501 29.0483 37.1501 29.2101V31.4501H34.3V28.6001H36.5401Z" fill="#879EC1"/>
<path d="M42.8501 28.6001H45.7001V31.4501H42.8501V28.6001Z" fill="#879EC1"/>
<path d="M47.9399 31.4501C48.1017 31.4501 48.2569 31.3858 48.3713 31.2714C48.4857 31.157 48.5499 31.0019 48.5499 30.8401V31.4501H47.9399Z" fill="#879EC1"/>
<path d="M46.31 31.4501C46.1482 31.4501 45.993 31.3858 45.8786 31.2714C45.7642 31.157 45.7 31.0019 45.7 30.8401V31.4501H46.31Z" fill="#879EC1"/>
<path d="M48.55 28.6001H51.4001V31.4501H48.55V28.6001Z" fill="#879EC1"/>
<path d="M51.9999 31.4501C51.8381 31.4501 51.683 31.3858 51.5686 31.2714C51.4542 31.157 51.3899 31.0019 51.3899 30.8401V31.4501H51.9999Z" fill="#879EC1"/>
<path d="M60 28.6001H62.8V31.4501H60V28.6001Z" fill="#879EC1"/>
<path d="M65 31.4501C65.1618 31.4501 65.3169 31.3858 65.4313 31.2714C65.5457 31.157 65.61 31.0019 65.61 30.8401V31.4501H65Z" fill="#879EC1"/>
<path d="M63.41 31.4501C63.2483 31.4501 63.0931 31.3858 62.9787 31.2714C62.8643 31.157 62.8 31.0019 62.8 30.8401V31.4501H63.41Z" fill="#879EC1"/>
<path d="M65.6499 28.6001H68.4999V31.4501H65.6499V28.6001Z" fill="#879EC1"/>
<path d="M10.8899 31.45H9.2599C9.09812 31.45 8.94296 31.5142 8.82857 31.6286C8.71417 31.743 8.6499 31.8982 8.6499 32.06V32.06V33.6899C8.6499 33.8517 8.71417 34.0069 8.82857 34.1213C8.94296 34.2357 9.09812 34.2999 9.2599 34.2999H11.4999V31.45H10.8899Z" fill="#879EC1"/>
<path d="M12.11 34.2999H13.74C13.9018 34.2999 14.0569 34.2357 14.1713 34.1213C14.2857 34.0069 14.35 33.8517 14.35 33.6899V32.06C14.35 31.8982 14.2857 31.743 14.1713 31.6286C14.0569 31.5142 13.9018 31.45 13.74 31.45H11.5V34.2999H12.11Z" fill="#879EC1"/>
<path d="M19.44 31.45H17.8099C17.6482 31.45 17.493 31.5142 17.3786 31.6286C17.2642 31.743 17.2 31.8982 17.2 32.06V33.6899C17.2 33.8517 17.2642 34.0069 17.3786 34.1213C17.493 34.2357 17.6482 34.2999 17.8099 34.2999H20.0499V31.45H19.44Z" fill="#879EC1"/>
<path d="M22.2901 31.45C22.4518 31.45 22.607 31.5142 22.7214 31.6286C22.8358 31.743 22.9 31.8982 22.9 32.06V34.2999H20.05V31.45H22.2901Z" fill="#879EC1"/>
<path d="M27.99 31.45H26.36C26.0231 31.45 25.75 31.7231 25.75 32.06V33.6899C25.75 34.0268 26.0231 34.2999 26.36 34.2999H27.99C28.3269 34.2999 28.6 34.0268 28.6 33.6899V32.06C28.6 31.7231 28.3269 31.45 27.99 31.45Z" fill="#879EC1"/>
<path d="M34.2999 32.06V31.45H33.6899C33.8517 31.45 34.0069 31.5142 34.1213 31.6286C34.2357 31.743 34.2999 31.8982 34.2999 32.06Z" fill="#879EC1"/>
<path d="M34.3 33.6899C34.3 33.8517 34.3643 34.0069 34.4787 34.1213C34.5931 34.2357 34.7483 34.2999 34.91 34.2999H36.5401C36.7018 34.2999 36.857 34.2357 36.9714 34.1213C37.0858 34.0069 37.1501 33.8517 37.1501 33.6899V31.45H34.3V33.6899Z" fill="#879EC1"/>
<path d="M42.8501 33.6899C42.8501 33.8517 42.9144 34.0069 43.0288 34.1213C43.1432 34.2357 43.2983 34.2999 43.4601 34.2999H45.7001V31.45H42.8501V33.6899Z" fill="#879EC1"/>
<path d="M45.7 31.45H48.5499V34.2999H45.7V31.45Z" fill="#879EC1"/>
<path d="M48.55 31.45H51.4001V34.2999H48.55V31.45Z" fill="#879EC1"/>
<path d="M53.6399 31.45C53.8017 31.45 53.9568 31.5142 54.0712 31.6286C54.1856 31.743 54.2499 31.8982 54.2499 32.06V34.2999H51.3999V31.45H53.6399Z" fill="#879EC1"/>
<path d="M54.86 34.2999C54.6982 34.2999 54.5431 34.2357 54.4287 34.1213C54.3143 34.0069 54.25 33.8517 54.25 33.6899V34.2999H54.86Z" fill="#879EC1"/>
<path d="M60 33.6899C60 33.8517 60.0643 34.0069 60.1787 34.1213C60.2931 34.2357 60.4482 34.2999 60.61 34.2999H62.8V31.45H60V33.6899Z" fill="#879EC1"/>
<path d="M62.8 31.45H65.6501V34.2999H62.8V31.45Z" fill="#879EC1"/>
<path d="M65.6499 31.45H68.4999V34.2999H65.6499V31.45Z" fill="#879EC1"/>
<path d="M70.74 34.2999C70.9018 34.2999 71.0569 34.2357 71.1713 34.1213C71.2857 34.0069 71.35 33.8517 71.35 33.6899V34.2999H70.74Z" fill="#879EC1"/>
<path d="M69.11 34.2999C68.9482 34.2999 68.7931 34.2357 68.6787 34.1213C68.5643 34.0069 68.5 33.8517 68.5 33.6899V34.2999H69.11Z" fill="#879EC1"/>
<path d="M74.1999 33.6899V32.06C74.1999 31.8982 74.1356 31.743 74.0212 31.6286C73.9068 31.5142 73.7517 31.45 73.5899 31.45H71.9999C71.8381 31.45 71.683 31.5142 71.5686 31.6286C71.4542 31.743 71.3899 31.8982 71.3899 32.06V34.2999H74.1999V33.6899Z" fill="#879EC1"/>
<path d="M91.3 33.6899V32.06C91.3 31.8982 91.2357 31.743 91.1213 31.6286C91.0069 31.5142 90.8517 31.45 90.69 31.45H89.06C88.8982 31.45 88.743 31.5142 88.6286 31.6286C88.5142 31.743 88.45 31.8982 88.45 32.06V34.2999H91.3V33.6899Z" fill="#879EC1"/>
<path d="M20.0499 34.91V34.3H19.4399C19.6017 34.3 19.7569 34.3643 19.8713 34.4787C19.9857 34.5931 20.0499 34.7483 20.0499 34.91Z" fill="#879EC1"/>
<path d="M20.05 34.3H22.9V37.1501H20.05V34.3Z" fill="#879EC1"/>
<path d="M23.5099 37.15C23.3481 37.15 23.193 37.0858 23.0786 36.9714C22.9642 36.857 22.8999 36.7018 22.8999 36.54V37.15H23.5099Z" fill="#879EC1"/>
<path d="M28 37.15C28.1618 37.15 28.3169 37.0858 28.4313 36.9714C28.5457 36.857 28.61 36.7018 28.61 36.54V37.15H28Z" fill="#879EC1"/>
<path d="M29.2101 34.3C29.0483 34.3 28.8932 34.3643 28.7788 34.4787C28.6644 34.5931 28.6001 34.7483 28.6001 34.91V37.1501H31.4501V34.3H29.2101Z" fill="#879EC1"/>
<path d="M32.06 37.1501H33.6899C33.8517 37.1501 34.0069 37.0858 34.1213 36.9714C34.2357 36.857 34.2999 36.7018 34.2999 36.5401V34.91C34.2999 34.7483 34.2357 34.5931 34.1213 34.4787C34.0069 34.3643 33.8517 34.3 33.6899 34.3H31.45V37.1501H32.06Z" fill="#879EC1"/>
<path d="M39.3899 34.3H37.7599C37.423 34.3 37.1499 34.5732 37.1499 34.91V36.5401C37.1499 36.8769 37.423 37.1501 37.7599 37.1501H39.3899C39.7268 37.1501 39.9999 36.8769 39.9999 36.5401V34.91C39.9999 34.5732 39.7268 34.3 39.3899 34.3Z" fill="#879EC1"/>
<path d="M48.5499 34.91V34.3H47.9399C48.1017 34.3 48.2569 34.3643 48.3713 34.4787C48.4857 34.5931 48.5499 34.7483 48.5499 34.91Z" fill="#879EC1"/>
<path d="M48.55 34.3H51.4001V37.1501H48.55V34.3Z" fill="#879EC1"/>
<path d="M51.3999 34.3H54.2499V37.1501H51.3999V34.3Z" fill="#879EC1"/>
<path d="M54.86 37.1501H56.49C56.6518 37.1501 56.8069 37.0858 56.9213 36.9714C57.0357 36.857 57.1 36.7018 57.1 36.5401V34.91C57.1 34.7483 57.0357 34.5931 56.9213 34.4787C56.8069 34.3643 56.6518 34.3 56.49 34.3H54.25V37.1501H54.86Z" fill="#879EC1"/>
<path d="M62.7999 34.91V34.3H62.1899C62.3517 34.3 62.5069 34.3643 62.6213 34.4787C62.7357 34.5931 62.7999 34.7483 62.7999 34.91Z" fill="#879EC1"/>
<path d="M62.8 36.5401C62.8 36.7018 62.8643 36.857 62.9787 36.9714C63.0931 37.0858 63.2483 37.1501 63.41 37.1501H65.6501V34.3H62.8V36.5401Z" fill="#879EC1"/>
<path d="M65.6499 34.3H68.4999V37.1501H65.6499V34.3Z" fill="#879EC1"/>
<path d="M68.5 34.3H71.35V37.1501H68.5V34.3Z" fill="#879EC1"/>
<path d="M74.2001 36.5401C74.2001 36.7018 74.1358 36.857 74.0214 36.9714C73.907 37.0858 73.7519 37.1501 73.5901 37.1501H71.3501V34.3H74.2001V36.5401Z" fill="#879EC1"/>
<path d="M79.29 34.3H77.66C77.4983 34.3 77.3431 34.3643 77.2287 34.4787C77.1143 34.5931 77.05 34.7483 77.05 34.91V36.5401C77.05 36.7018 77.1143 36.857 77.2287 36.9714C77.3431 37.0858 77.4983 37.1501 77.66 37.1501H79.9V34.3H79.29Z" fill="#879EC1"/>
<path d="M79.8999 34.3H82.7499V37.1501H79.8999V34.3Z" fill="#879EC1"/>
<path d="M83.36 37.1501H85C85.1618 37.1501 85.3169 37.0858 85.4313 36.9714C85.5457 36.857 85.61 36.7018 85.61 36.5401V34.91C85.61 34.7483 85.5457 34.5931 85.4313 34.4787C85.3169 34.3643 85.1618 34.3 85 34.3H82.75V37.1501H83.36Z" fill="#879EC1"/>
<path d="M88.45 36.5401C88.45 36.7018 88.5142 36.857 88.6286 36.9714C88.743 37.0858 88.8982 37.1501 89.06 37.1501H90.69C90.8517 37.1501 91.0069 37.0858 91.1213 36.9714C91.2357 36.857 91.3 36.7018 91.3 36.5401V34.3H88.45V36.5401Z" fill="#879EC1"/>
<path d="M11.4999 39.3899V37.7599C11.4999 37.5981 11.4356 37.443 11.3212 37.3286C11.2068 37.2142 11.0517 37.1499 10.8899 37.1499H9.2599C9.09812 37.1499 8.94296 37.2142 8.82857 37.3286C8.71417 37.443 8.6499 37.5981 8.6499 37.7599V37.7599V39.9999H11.4999V39.3899Z" fill="#879EC1"/>
<path d="M12.11 39.9999C11.9482 39.9999 11.7931 39.9356 11.6787 39.8212C11.5643 39.7068 11.5 39.5517 11.5 39.3899V39.9999H12.11Z" fill="#879EC1"/>
<path d="M16.5901 37.1499H14.9601C14.6232 37.1499 14.3501 37.423 14.3501 37.7599V39.3899C14.3501 39.7268 14.6232 39.9999 14.9601 39.9999H16.5901C16.927 39.9999 17.2001 39.7268 17.2001 39.3899V37.7599C17.2001 37.423 16.927 37.1499 16.5901 37.1499Z" fill="#879EC1"/>
<path d="M20.05 39.3899C20.05 39.5517 20.1143 39.7068 20.2287 39.8212C20.3431 39.9356 20.4983 39.9999 20.66 39.9999H22.9V37.1499H20.05V39.3899Z" fill="#879EC1"/>
<path d="M22.8999 37.1499H25.7499V39.9999H22.8999V37.1499Z" fill="#879EC1"/>
<path d="M25.75 37.1499H28.6V39.9999H25.75V37.1499Z" fill="#879EC1"/>
<path d="M28.6001 37.1499H31.4501V39.9999H28.6001V37.1499Z" fill="#879EC1"/>
<path d="M32.06 37.1499H31.45V37.7599C31.45 37.5981 31.5142 37.443 31.6286 37.3286C31.743 37.2142 31.8982 37.1499 32.06 37.1499Z" fill="#879EC1"/>
<path d="M32.06 39.9999C31.8982 39.9999 31.743 39.9356 31.6286 39.8212C31.5142 39.7068 31.45 39.5517 31.45 39.3899V39.9999H32.06Z" fill="#879EC1"/>
<path d="M36.5401 37.1499H34.91C34.5732 37.1499 34.3 37.423 34.3 37.7599V39.3899C34.3 39.7268 34.5732 39.9999 34.91 39.9999H36.5401C36.8769 39.9999 37.1501 39.7268 37.1501 39.3899V37.7599C37.1501 37.423 36.8769 37.1499 36.5401 37.1499Z" fill="#879EC1"/>
<path d="M45.0901 37.1499H43.4601C43.1232 37.1499 42.8501 37.423 42.8501 37.7599V39.3899C42.8501 39.7268 43.1232 39.9999 43.4601 39.9999H45.0901C45.427 39.9999 45.7001 39.7268 45.7001 39.3899V37.7599C45.7001 37.423 45.427 37.1499 45.0901 37.1499Z" fill="#879EC1"/>
<path d="M48.55 37.1499H51.4001V39.9999H48.55V37.1499Z" fill="#879EC1"/>
<path d="M51.9999 37.1499H51.3999V37.7599C51.3999 37.5981 51.4642 37.443 51.5786 37.3286C51.693 37.2142 51.8481 37.1499 52.0099 37.1499H51.9999Z" fill="#879EC1"/>
<path d="M51.9999 39.9999C51.8381 39.9999 51.683 39.9356 51.5686 39.8212C51.4542 39.7068 51.3899 39.5517 51.3899 39.3899V39.9999H51.9999Z" fill="#879EC1"/>
<path d="M65.65 37.76V37.15H65C65.0834 37.1445 65.167 37.1562 65.2457 37.1844C65.3244 37.2126 65.3965 37.2567 65.4574 37.3139C65.5184 37.3711 65.5669 37.4402 65.6001 37.5169C65.6332 37.5937 65.6502 37.6764 65.65 37.76Z" fill="#879EC1"/>
<path d="M65 39.9999C65.1618 39.9999 65.3169 39.9356 65.4313 39.8212C65.5457 39.7068 65.61 39.5517 65.61 39.3899V39.9999H65Z" fill="#879EC1"/>
<path d="M65.6499 37.1499H68.4999V39.9999H65.6499V37.1499Z" fill="#879EC1"/>
<path d="M69.11 37.1499H68.5V37.7599C68.5 37.5981 68.5643 37.443 68.6787 37.3286C68.7931 37.2142 68.9482 37.1499 69.11 37.1499Z" fill="#879EC1"/>
<path d="M76.44 37.1499H74.81C74.4731 37.1499 74.2 37.423 74.2 37.7599V39.3899C74.2 39.7268 74.4731 39.9999 74.81 39.9999H76.44C76.7769 39.9999 77.05 39.7268 77.05 39.3899V37.7599C77.05 37.423 76.7769 37.1499 76.44 37.1499Z" fill="#879EC1"/>
<path d="M79.9 37.7599V37.1499H79.29C79.4518 37.1499 79.607 37.2142 79.7214 37.3286C79.8358 37.443 79.9 37.5981 79.9 37.7599Z" fill="#879EC1"/>
<path d="M79.29 39.9999C79.4518 39.9999 79.607 39.9356 79.7214 39.8212C79.8358 39.7068 79.9 39.5517 79.9 39.3899V39.9999H79.29Z" fill="#879EC1"/>
<path d="M79.8999 37.1499H82.7499V39.9999H79.8999V37.1499Z" fill="#879EC1"/>
<path d="M83.36 37.1499H82.75V37.7599C82.75 37.5981 82.8143 37.443 82.9287 37.3286C83.0431 37.2142 83.1982 37.1499 83.36 37.1499Z" fill="#879EC1"/>
<path d="M8.6499 40H11.4999V42.85H8.6499V40Z" fill="#879EC1"/>
<path d="M13.74 40C13.9018 40 14.0569 40.0643 14.1713 40.1787C14.2857 40.2931 14.35 40.4482 14.35 40.61V42.85H11.5V40H13.74Z" fill="#879EC1"/>
<path d="M20.0499 42.24V40.61C20.0499 40.4482 19.9857 40.2931 19.8713 40.1787C19.7569 40.0643 19.6017 40 19.44 40H17.8099C17.6482 40 17.493 40.0643 17.3786 40.1787C17.2642 40.2931 17.2 40.4482 17.2 40.61V42.85H20.0499V42.24Z" fill="#879EC1"/>
<path d="M22.9 40.61V40H22.29C22.4518 40 22.607 40.0643 22.7214 40.1787C22.8358 40.2931 22.9 40.4482 22.9 40.61Z" fill="#879EC1"/>
<path d="M22.8999 42.24C22.8999 42.4018 22.9642 42.5569 23.0786 42.6713C23.193 42.7857 23.3481 42.85 23.5099 42.85H25.1399C25.3017 42.85 25.4568 42.7857 25.5712 42.6713C25.6856 42.5569 25.7499 42.4018 25.7499 42.24V40H22.8999V42.24Z" fill="#879EC1"/>
<path d="M26.36 40H25.75V40.61C25.75 40.4482 25.8143 40.2931 25.9287 40.1787C26.0431 40.0643 26.1982 40 26.36 40V40Z" fill="#879EC1"/>
<path d="M28.6 40.61V40H28C28.16 40.0026 28.3126 40.068 28.4249 40.1822C28.5371 40.2963 28.6 40.4499 28.6 40.61Z" fill="#879EC1"/>
<path d="M28.6001 42.24C28.6001 42.4018 28.6644 42.5569 28.7788 42.6713C28.8932 42.7857 29.0483 42.85 29.2101 42.85H31.4501V40H28.6001V42.24Z" fill="#879EC1"/>
<path d="M32.06 42.85H33.6899C33.8517 42.85 34.0069 42.7857 34.1213 42.6713C34.2357 42.5569 34.2999 42.4018 34.2999 42.24V40.61C34.2999 40.4482 34.2357 40.2931 34.1213 40.1787C34.0069 40.0643 33.8517 40 33.6899 40H31.45V42.85H32.06Z" fill="#879EC1"/>
<path d="M47.9399 42.85C48.1017 42.85 48.2569 42.7857 48.3713 42.6713C48.4857 42.5569 48.5499 42.4018 48.5499 42.24V42.85H47.9399Z" fill="#879EC1"/>
<path d="M48.55 40H51.4001V42.85H48.55V40Z" fill="#879EC1"/>
<path d="M53.6399 40C53.8017 40 53.9568 40.0643 54.0712 40.1787C54.1856 40.2931 54.2499 40.4482 54.2499 40.61V42.85H51.3999V40H53.6399Z" fill="#879EC1"/>
<path d="M56.49 42.85C56.6518 42.85 56.8069 42.7857 56.9213 42.6713C57.0357 42.5569 57.1 42.4018 57.1 42.24V42.85H56.49Z" fill="#879EC1"/>
<path d="M54.86 42.85C54.6982 42.85 54.5431 42.7857 54.4287 42.6713C54.3143 42.5569 54.25 42.4018 54.25 42.24V42.85H54.86Z" fill="#879EC1"/>
<path d="M60.0001 42.24V40.61C60.0001 40.4482 59.9358 40.2931 59.8214 40.1787C59.707 40.0643 59.5519 40 59.3901 40H57.7101C57.5483 40 57.3932 40.0643 57.2788 40.1787C57.1644 40.2931 57.1001 40.4482 57.1001 40.61V42.85H60.0001V42.24Z" fill="#879EC1"/>
<path d="M63.41 40C63.2483 40 63.0931 40.0643 62.9787 40.1787C62.8643 40.2931 62.8 40.4482 62.8 40.61V42.85H65.6501V40H63.41Z" fill="#879EC1"/>
<path d="M68.4999 42.24C68.4999 42.4018 68.4356 42.5569 68.3212 42.6713C68.2068 42.7857 68.0517 42.85 67.8899 42.85H65.6499V40H68.4999V42.24Z" fill="#879EC1"/>
<path d="M76.4399 42.85C76.6017 42.85 76.7569 42.7857 76.8713 42.6713C76.9857 42.5569 77.0499 42.4018 77.0499 42.24V42.85H76.4399Z" fill="#879EC1"/>
<path d="M77.66 40C77.4983 40 77.3431 40.0643 77.2287 40.1787C77.1143 40.2931 77.05 40.4482 77.05 40.61V42.85H79.9V40H77.66Z" fill="#879EC1"/>
<path d="M79.8999 40H82.7499V42.85H79.8999V40Z" fill="#879EC1"/>
<path d="M83.36 42.85C83.1982 42.85 83.0431 42.7857 82.9287 42.6713C82.8143 42.5569 82.75 42.4018 82.75 42.24V42.85H83.36Z" fill="#879EC1"/>
<path d="M87.8401 40H86.2101C85.8732 40 85.6001 40.2731 85.6001 40.61V42.24C85.6001 42.5769 85.8732 42.85 86.2101 42.85H87.8401C88.177 42.85 88.4501 42.5769 88.4501 42.24V40.61C88.4501 40.2731 88.177 40 87.8401 40Z" fill="#879EC1"/>
<path d="M8.6499 45.0901C8.6499 45.2519 8.71417 45.407 8.82857 45.5214C8.94296 45.6358 9.09812 45.7001 9.2599 45.7001H11.4999V42.8501H8.6499V45.0901Z" fill="#879EC1"/>
<path d="M11.5 42.8501H14.35V45.7001H11.5V42.8501Z" fill="#879EC1"/>
<path d="M14.9999 45.7001C14.8381 45.7001 14.683 45.6358 14.5686 45.5214C14.4542 45.407 14.3899 45.2519 14.3899 45.0901V45.7001H14.9999Z" fill="#879EC1"/>
<path d="M17.2 45.0901C17.2 45.2519 17.2642 45.407 17.3786 45.5214C17.493 45.6358 17.6482 45.7001 17.8099 45.7001H19.44C19.6017 45.7001 19.7569 45.6358 19.8713 45.5214C19.9857 45.407 20.0499 45.2519 20.0499 45.0901V42.8501H17.2V45.0901Z" fill="#879EC1"/>
<path d="M27.99 42.8501H26.36C26.0231 42.8501 25.75 43.1232 25.75 43.4601V45.0901C25.75 45.427 26.0231 45.7001 26.36 45.7001H27.99C28.3269 45.7001 28.6 45.427 28.6 45.0901V43.4601C28.6 43.1232 28.3269 42.8501 27.99 42.8501Z" fill="#879EC1"/>
<path d="M36.5401 42.8501H34.91C34.7483 42.8501 34.5931 42.9144 34.4787 43.0288C34.3643 43.1432 34.3 43.2983 34.3 43.4601V45.0901C34.3 45.2519 34.3643 45.407 34.4787 45.5214C34.5931 45.6358 34.7483 45.7001 34.91 45.7001H37.1501V42.8501H36.5401Z" fill="#879EC1"/>
<path d="M39.3899 42.8501C39.5517 42.8501 39.7068 42.9144 39.8212 43.0288C39.9356 43.1432 39.9999 43.2983 39.9999 43.4601V45.7001H37.1499V42.8501H39.3899Z" fill="#879EC1"/>
<path d="M47.9399 42.8501H46.31C46.1482 42.8501 45.993 42.9144 45.8786 43.0288C45.7642 43.1432 45.7 43.2983 45.7 43.4601V45.0901C45.7 45.2519 45.7642 45.407 45.8786 45.5214C45.993 45.6358 46.1482 45.7001 46.31 45.7001H48.5499V42.8501H47.9399Z" fill="#879EC1"/>
<path d="M48.55 42.8501H51.4001V45.7001H48.55V42.8501Z" fill="#879EC1"/>
<path d="M51.3999 42.8501H54.2499V45.7001H51.3999V42.8501Z" fill="#879EC1"/>
<path d="M54.25 42.8501H57.1V45.7001H54.25V42.8501Z" fill="#879EC1"/>
<path d="M60.0001 45.0901C60.0001 45.2519 59.9358 45.407 59.8214 45.5214C59.707 45.6358 59.5519 45.7001 59.3901 45.7001H57.1001V42.8501H60.0001V45.0901Z" fill="#879EC1"/>
<path d="M62.8 45.0901C62.8 45.2519 62.8643 45.407 62.9787 45.5214C63.0931 45.6358 63.2483 45.7001 63.41 45.7001H65C65.1618 45.7001 65.317 45.6358 65.4314 45.5214C65.5458 45.407 65.6101 45.2519 65.6101 45.0901V42.8501H62.8V45.0901Z" fill="#879EC1"/>
<path d="M66.2599 42.8501H65.6499V43.4601C65.6499 43.2983 65.7142 43.1432 65.8286 43.0288C65.943 42.9144 66.0981 42.8501 66.2599 42.8501Z" fill="#879EC1"/>
<path d="M67.8899 45.7001C68.0517 45.7001 68.2068 45.6358 68.3212 45.5214C68.4356 45.407 68.4999 45.2519 68.4999 45.0901V45.7001H67.8899Z" fill="#879EC1"/>
<path d="M69.11 42.8501C68.9482 42.8501 68.7931 42.9144 68.6787 43.0288C68.5643 43.1432 68.5 43.2983 68.5 43.4601V45.7001H71.35V42.8501H69.11Z" fill="#879EC1"/>
<path d="M71.3501 42.8501H74.2001V45.7001H71.3501V42.8501Z" fill="#879EC1"/>
<path d="M74.2 42.8501H77.05V45.7001H74.2V42.8501Z" fill="#879EC1"/>
<path d="M77.05 42.8501H79.9V45.7001H77.05V42.8501Z" fill="#879EC1"/>
<path d="M79.8999 42.8501H82.7499V45.7001H79.8999V42.8501Z" fill="#879EC1"/>
<path d="M85 42.8501C85.1618 42.8501 85.3169 42.9144 85.4313 43.0288C85.5457 43.1432 85.61 43.2983 85.61 43.4601V45.7001H82.75V42.8501H85Z" fill="#879EC1"/>
<path d="M90.69 42.8501H89.06C88.7231 42.8501 88.45 43.1232 88.45 43.4601V45.0901C88.45 45.427 88.7231 45.7001 89.06 45.7001H90.69C91.0269 45.7001 91.3 45.427 91.3 45.0901V43.4601C91.3 43.1232 91.0269 42.8501 90.69 42.8501Z" fill="#879EC1"/>
<path d="M11.4999 46.31V45.7H10.8899C11.0517 45.7 11.2068 45.7642 11.3212 45.8786C11.4356 45.993 11.4999 46.1482 11.4999 46.31V46.31Z" fill="#879EC1"/>
<path d="M11.5 47.9399C11.5 48.1017 11.5643 48.2569 11.6787 48.3713C11.7931 48.4857 11.9482 48.5499 12.11 48.5499H14.35V45.7H11.5V47.9399Z" fill="#879EC1"/>
<path d="M16.5901 45.7C16.7519 45.7 16.907 45.7642 17.0214 45.8786C17.1358 45.993 17.2001 46.1482 17.2001 46.31V48.5499H14.3501V45.7H16.5901Z" fill="#879EC1"/>
<path d="M17.8099 48.5499C17.6482 48.5499 17.493 48.4857 17.3786 48.3713C17.2642 48.2569 17.2 48.1017 17.2 47.9399V48.5499H17.8099Z" fill="#879EC1"/>
<path d="M37.15 46.31V45.7H36.54C36.7018 45.7 36.857 45.7642 36.9714 45.8786C37.0858 45.993 37.15 46.1482 37.15 46.31Z" fill="#879EC1"/>
<path d="M37.1499 45.7H39.9999V48.5499H37.1499V45.7Z" fill="#879EC1"/>
<path d="M45.0901 45.7H43.4601C43.1232 45.7 42.8501 45.9731 42.8501 46.31V47.9399C42.8501 48.2768 43.1232 48.5499 43.4601 48.5499H45.0901C45.427 48.5499 45.7001 48.2768 45.7001 47.9399V46.31C45.7001 45.9731 45.427 45.7 45.0901 45.7Z" fill="#879EC1"/>
<path d="M51.4 46.31V45.7H50.79C50.9518 45.7 51.107 45.7642 51.2214 45.8786C51.3358 45.993 51.4 46.1482 51.4 46.31Z" fill="#879EC1"/>
<path d="M51.3999 47.9399C51.3999 48.1017 51.4642 48.2569 51.5786 48.3713C51.693 48.4857 51.8481 48.5499 52.0099 48.5499H54.2499V45.7H51.3999V47.9399Z" fill="#879EC1"/>
<path d="M54.25 45.7H57.1V48.5499H54.25V45.7Z" fill="#879EC1"/>
<path d="M57.7101 45.7H57.1001V46.31C57.1001 46.1482 57.1644 45.993 57.2788 45.8786C57.3932 45.7642 57.5483 45.7 57.7101 45.7Z" fill="#879EC1"/>
<path d="M57.7101 48.5499C57.5483 48.5499 57.3932 48.4857 57.2788 48.3713C57.1644 48.2569 57.1001 48.1017 57.1001 47.9399V48.5499H57.7101Z" fill="#879EC1"/>
<path d="M62.1899 45.7H60.56C60.2231 45.7 59.95 45.9731 59.95 46.31V47.9399C59.95 48.2768 60.2231 48.5499 60.56 48.5499H62.1899C62.5268 48.5499 62.7999 48.2768 62.7999 47.9399V46.31C62.7999 45.9731 62.5268 45.7 62.1899 45.7Z" fill="#879EC1"/>
<path d="M67.8899 45.7H66.2599C66.0981 45.7 65.943 45.7642 65.8286 45.8786C65.7142 45.993 65.6499 46.1482 65.6499 46.31V47.9399C65.6499 48.1017 65.7142 48.2569 65.8286 48.3713C65.943 48.4857 66.0981 48.5499 66.2599 48.5499H68.4999V45.7H67.8899Z" fill="#879EC1"/>
<path d="M68.5 45.7H71.35V48.5499H68.5V45.7Z" fill="#879EC1"/>
<path d="M71.3501 45.7H74.2001V48.5499H71.3501V45.7Z" fill="#879EC1"/>
<path d="M74.81 45.7H74.2V46.31C74.2 46.1482 74.2642 45.993 74.3786 45.8786C74.493 45.7642 74.6482 45.7 74.81 45.7Z" fill="#879EC1"/>
<path d="M77.0499 46.31V45.7H76.4399C76.6017 45.7 76.7569 45.7642 76.8713 45.8786C76.9857 45.993 77.0499 46.1482 77.0499 46.31Z" fill="#879EC1"/>
<path d="M74.81 48.5499C74.6482 48.5499 74.493 48.4857 74.3786 48.3713C74.2642 48.2569 74.2 48.1017 74.2 47.9399V48.5499H74.81Z" fill="#879EC1"/>
<path d="M77.05 47.9399C77.05 48.1017 77.1143 48.2569 77.2287 48.3713C77.3431 48.4857 77.4983 48.5499 77.66 48.5499H79.29C79.4518 48.5499 79.607 48.4857 79.7214 48.3713C79.8358 48.2569 79.9 48.1017 79.9 47.9399V45.7H77.05V47.9399Z" fill="#879EC1"/>
<path d="M80.5099 45.7H79.8999V46.31C79.8999 46.1482 79.9642 45.993 80.0786 45.8786C80.193 45.7642 80.3481 45.7 80.5099 45.7V45.7Z" fill="#879EC1"/>
<path d="M82.7499 46.31V45.7H82.1399C82.3017 45.7 82.4568 45.7642 82.5712 45.8786C82.6856 45.993 82.7499 46.1482 82.7499 46.31Z" fill="#879EC1"/>
<path d="M82.75 45.7H85.6V48.5499H82.75V45.7Z" fill="#879EC1"/>
<path d="M86.2101 48.5499C86.0483 48.5499 85.8932 48.4857 85.7788 48.3713C85.6644 48.2569 85.6001 48.1017 85.6001 47.9399V48.5499H86.2101Z" fill="#879EC1"/>
<path d="M14.35 49.16V48.55H13.74C13.9018 48.55 14.0569 48.6143 14.1713 48.7287C14.2857 48.8431 14.35 48.9983 14.35 49.16V49.16Z" fill="#879EC1"/>
<path d="M14.3501 50.7901C14.3501 50.9518 14.4144 51.107 14.5288 51.2214C14.6432 51.3358 14.7983 51.4001 14.9601 51.4001H17.2001V48.55H14.3501V50.7901Z" fill="#879EC1"/>
<path d="M17.8099 51.4001H19.44C19.6017 51.4001 19.7569 51.3358 19.8713 51.2214C19.9857 51.107 20.0499 50.9518 20.0499 50.7901V49.16C20.0499 48.9983 19.9857 48.8431 19.8713 48.7287C19.7569 48.6143 19.6017 48.55 19.44 48.55H17.2V51.4001H17.8099Z" fill="#879EC1"/>
<path d="M25.1399 48.55H23.5099C23.3481 48.55 23.193 48.6143 23.0786 48.7287C22.9642 48.8431 22.8999 48.9983 22.8999 49.16V50.7901C22.8999 50.9518 22.9642 51.107 23.0786 51.2214C23.193 51.3358 23.3481 51.4001 23.5099 51.4001H25.7499V48.55H25.1399Z" fill="#879EC1"/>
<path d="M25.75 48.55H28.6V51.4001H25.75V48.55Z" fill="#879EC1"/>
<path d="M29.2101 51.4001H30.8401C31.0019 51.4001 31.157 51.3358 31.2714 51.2214C31.3858 51.107 31.4501 50.9518 31.4501 50.7901V49.16C31.4501 48.9983 31.3858 48.8431 31.2714 48.7287C31.157 48.6143 31.0019 48.55 30.8401 48.55H28.6001V51.4001H29.2101Z" fill="#879EC1"/>
<path d="M36.54 51.4C36.7018 51.4 36.857 51.3358 36.9714 51.2214C37.0858 51.107 37.15 50.9518 37.15 50.79V51.4H36.54Z" fill="#879EC1"/>
<path d="M37.1499 48.55H39.9999V51.4001H37.1499V48.55Z" fill="#879EC1"/>
<path d="M47.9399 51.4C48.1017 51.4 48.2569 51.3358 48.3713 51.2214C48.4857 51.107 48.5499 50.9518 48.5499 50.79V51.4H47.9399Z" fill="#879EC1"/>
<path d="M51.4001 50.7901V49.16C51.4001 48.9983 51.3358 48.8431 51.2214 48.7287C51.107 48.6143 50.9518 48.55 50.7901 48.55H49.16C48.9983 48.55 48.8431 48.6143 48.7287 48.7287C48.6143 48.8431 48.55 48.9983 48.55 49.16V51.4001H51.4001V50.7901Z" fill="#879EC1"/>
<path d="M54.2499 49.16V48.55H53.6399C53.8017 48.55 53.9568 48.6143 54.0712 48.7287C54.1856 48.8431 54.2499 48.9983 54.2499 49.16Z" fill="#879EC1"/>
<path d="M51.9999 51.4C51.8381 51.4 51.683 51.3358 51.5686 51.2214C51.4542 51.107 51.3899 50.9518 51.3899 50.79V51.4H51.9999Z" fill="#879EC1"/>
<path d="M54.25 50.7901C54.25 50.9518 54.3143 51.107 54.4287 51.2214C54.5431 51.3358 54.6982 51.4001 54.86 51.4001H57.1V48.55H54.25V50.7901Z" fill="#879EC1"/>
<path d="M57.7101 51.4001H59.3401C59.5019 51.4001 59.657 51.3358 59.7714 51.2214C59.8858 51.107 59.9501 50.9518 59.9501 50.7901V49.16C59.9501 48.9983 59.8858 48.8431 59.7714 48.7287C59.657 48.6143 59.5019 48.55 59.3401 48.55H57.1001V51.4001H57.7101Z" fill="#879EC1"/>
<path d="M62.1899 51.4C62.3517 51.4 62.5069 51.3358 62.6213 51.2214C62.7357 51.107 62.7999 50.9518 62.7999 50.79V51.4H62.1899Z" fill="#879EC1"/>
<path d="M65.6501 50.7901V49.16C65.6501 48.9983 65.5858 48.8431 65.4714 48.7287C65.357 48.6143 65.2018 48.55 65.0401 48.55H63.41C63.2483 48.55 63.0931 48.6143 62.9787 48.7287C62.8643 48.8431 62.8 48.9983 62.8 49.16V51.4001H65.6501V50.7901Z" fill="#879EC1"/>
<path d="M71.35 49.16V48.55H70.74C70.9018 48.55 71.0569 48.6143 71.1713 48.7287C71.2857 48.8431 71.35 48.9983 71.35 49.16Z" fill="#879EC1"/>
<path d="M71.3501 50.7901C71.3501 50.9518 71.4144 51.107 71.5288 51.2214C71.6432 51.3358 71.7983 51.4001 71.9601 51.4001H74.2001V48.55H71.3501V50.7901Z" fill="#879EC1"/>
<path d="M76.44 48.55C76.6017 48.55 76.7569 48.6143 76.8713 48.7287C76.9857 48.8431 77.05 48.9983 77.05 49.16V51.4001H74.2V48.55H76.44Z" fill="#879EC1"/>
<path d="M77.66 51.4C77.4983 51.4 77.3431 51.3358 77.2287 51.2214C77.1143 51.107 77.05 50.9518 77.05 50.79V51.4H77.66Z" fill="#879EC1"/>
<path d="M82.75 48.55H85.6V51.4001H82.75V48.55Z" fill="#879EC1"/>
<path d="M86.2101 51.4001H87.8401C88.0019 51.4001 88.157 51.3358 88.2714 51.2214C88.3858 51.107 88.4501 50.9518 88.4501 50.7901V49.16C88.4501 48.9983 88.3858 48.8431 88.2714 48.7287C88.157 48.6143 88.0019 48.55 87.8401 48.55H85.6001V51.4001H86.2101Z" fill="#879EC1"/>
<path d="M22.2901 51.3999H20.66C20.3232 51.3999 20.05 51.673 20.05 52.0099V53.6399C20.05 53.9768 20.3232 54.2499 20.66 54.2499H22.2901C22.6269 54.2499 22.9 53.9768 22.9 53.6399V52.0099C22.9 51.673 22.6269 51.3999 22.2901 51.3999Z" fill="#879EC1"/>
<path d="M33.6899 54.2499C33.8517 54.2499 34.0069 54.1856 34.1213 54.0712C34.2357 53.9568 34.2999 53.8017 34.2999 53.6399V54.2499H33.6899Z" fill="#879EC1"/>
<path d="M34.91 51.3999C34.7483 51.3999 34.5931 51.4642 34.4787 51.5786C34.3643 51.693 34.3 51.8481 34.3 52.0099V54.2499H37.1501V51.3999H34.91Z" fill="#879EC1"/>
<path d="M37.1499 51.3999H39.9999V54.2499H37.1499V51.3999Z" fill="#879EC1"/>
<path d="M42.24 54.2499C42.4018 54.2499 42.5569 54.1856 42.6713 54.0712C42.7857 53.9568 42.85 53.8017 42.85 53.6399V54.2499H42.24Z" fill="#879EC1"/>
<path d="M40.61 54.2499C40.4482 54.2499 40.2931 54.1856 40.1787 54.0712C40.0643 53.9568 40 53.8017 40 53.6399V54.2499H40.61Z" fill="#879EC1"/>
<path d="M43.4601 51.3999C43.2983 51.3999 43.1432 51.4642 43.0288 51.5786C42.9144 51.693 42.8501 51.8481 42.8501 52.0099V54.2499H45.7001V51.3999H43.4601Z" fill="#879EC1"/>
<path d="M45.7 51.3999H48.5499V54.2499H45.7V51.3999Z" fill="#879EC1"/>
<path d="M48.55 51.3999H51.4001V54.2499H48.55V51.3999Z" fill="#879EC1"/>
<path d="M53.6399 51.3999C53.8017 51.3999 53.9568 51.4642 54.0712 51.5786C54.1856 51.693 54.2499 51.8481 54.2499 52.0099V54.2499H51.3999V51.3999H53.6399Z" fill="#879EC1"/>
<path d="M54.86 54.2499C54.6982 54.2499 54.5431 54.1856 54.4287 54.0712C54.3143 53.9568 54.25 53.8017 54.25 53.6399V54.2499H54.86Z" fill="#879EC1"/>
<path d="M62.19 51.3999H60.56C60.4087 51.4123 60.2676 51.4807 60.164 51.5916C60.0605 51.7026 60.002 51.8481 60 51.9999V51.9999V53.6299C60 53.7917 60.0643 53.9468 60.1787 54.0612C60.2931 54.1756 60.4482 54.2399 60.61 54.2399H62.8V51.3999H62.19Z" fill="#879EC1"/>
<path d="M65.6501 53.6399C65.6501 53.8017 65.5858 53.9568 65.4714 54.0712C65.357 54.1856 65.2018 54.2499 65.0401 54.2499H62.8V51.3999H65.6501V53.6399Z" fill="#879EC1"/>
<path d="M74.2001 51.9999V51.3999H73.5901C73.7502 51.3999 73.9038 51.4628 74.0179 51.575C74.132 51.6873 74.1975 51.8399 74.2001 51.9999Z" fill="#879EC1"/>
<path d="M74.2 53.6399C74.2 53.8017 74.2642 53.9568 74.3786 54.0712C74.493 54.1856 74.6482 54.2499 74.81 54.2499H77.05V51.3999H74.2V53.6399Z" fill="#879EC1"/>
<path d="M77.66 54.2499H79.29C79.4518 54.2499 79.607 54.1856 79.7214 54.0712C79.8358 53.9568 79.9 53.8017 79.9 53.6399V51.9999C79.9 51.8381 79.8358 51.683 79.7214 51.5686C79.607 51.4542 79.4518 51.3899 79.29 51.3899H77.05V54.2399L77.66 54.2499Z" fill="#879EC1"/>
<path d="M82.75 51.3999H85.6V54.2499H82.75V51.3999Z" fill="#879EC1"/>
<path d="M86.2101 51.3999H85.6001V51.9999C85.6001 51.8381 85.6644 51.683 85.7788 51.5686C85.8932 51.4542 86.0483 51.3899 86.2101 51.3899V51.3999Z" fill="#879EC1"/>
<path d="M11.4999 56.49V54.86C11.4999 54.6982 11.4356 54.5431 11.3212 54.4287C11.2068 54.3143 11.0517 54.25 10.8899 54.25H9.2599C9.09812 54.25 8.94296 54.3143 8.82857 54.4287C8.71417 54.5431 8.6499 54.6982 8.6499 54.86V54.86V57.1H11.4999V56.49Z" fill="#879EC1"/>
<path d="M16.5901 54.25H14.9601C14.6232 54.25 14.3501 54.5231 14.3501 54.86V56.49C14.3501 56.8269 14.6232 57.1 14.9601 57.1H16.5901C16.927 57.1 17.2001 56.8269 17.2001 56.49V54.86C17.2001 54.5231 16.927 54.25 16.5901 54.25Z" fill="#879EC1"/>
<path d="M27.99 54.25H26.36C26.0231 54.25 25.75 54.5231 25.75 54.86V56.49C25.75 56.8269 26.0231 57.1 26.36 57.1H27.99C28.3269 57.1 28.6 56.8269 28.6 56.49V54.86C28.6 54.5231 28.3269 54.25 27.99 54.25Z" fill="#879EC1"/>
<path d="M33.6899 54.25H32.06C31.8982 54.25 31.743 54.3143 31.6286 54.4287C31.5142 54.5431 31.45 54.6982 31.45 54.86V54.86V56.49C31.45 56.6518 31.5142 56.8069 31.6286 56.9213C31.743 57.0357 31.8982 57.1 32.06 57.1H34.2999V54.25H33.6899Z" fill="#879EC1"/>
<path d="M34.3 54.25H37.1501V57.1H34.3V54.25Z" fill="#879EC1"/>
<path d="M37.1499 54.25H39.9999V57.1H37.1499V54.25Z" fill="#879EC1"/>
<path d="M40 54.25H42.85V57.1H40V54.25Z" fill="#879EC1"/>
<path d="M45.7001 56.49C45.7001 56.6518 45.6358 56.8069 45.5214 56.9213C45.407 57.0357 45.2519 57.1 45.0901 57.1H42.8501V54.25H45.7001V56.49Z" fill="#879EC1"/>
<path d="M46.31 54.25H45.7V54.86C45.7 54.6982 45.7642 54.5431 45.8786 54.4287C45.993 54.3143 46.1482 54.25 46.31 54.25V54.25Z" fill="#879EC1"/>
<path d="M51.4 54.86V54.25H50.79C50.9518 54.25 51.107 54.3143 51.2214 54.4287C51.3358 54.5431 51.4 54.6982 51.4 54.86V54.86Z" fill="#879EC1"/>
<path d="M51.3999 56.49C51.3999 56.6518 51.4642 56.8069 51.5786 56.9213C51.693 57.0357 51.8481 57.1 52.0099 57.1H54.2499V54.25H51.3999V56.49Z" fill="#879EC1"/>
<path d="M56.49 54.25C56.6518 54.25 56.8069 54.3143 56.9213 54.4287C57.0357 54.5431 57.1 54.6982 57.1 54.86V57.1H54.25V54.25H56.49Z" fill="#879EC1"/>
<path d="M57.7101 57.1C57.5483 57.1 57.3932 57.0357 57.2788 56.9213C57.1644 56.8069 57.1001 56.6518 57.1001 56.49V57.1H57.7101Z" fill="#879EC1"/>
<path d="M65 57.1C65.1618 57.1 65.3169 57.0357 65.4313 56.9213C65.5457 56.8069 65.61 56.6518 65.61 56.49V57.1H65Z" fill="#879EC1"/>
<path d="M68.4999 56.49V54.86C68.4999 54.6982 68.4356 54.5431 68.3212 54.4287C68.2068 54.3143 68.0517 54.25 67.8899 54.25H66.2599C66.0981 54.25 65.943 54.3143 65.8286 54.4287C65.7142 54.5431 65.6499 54.6982 65.6499 54.86V54.86V57.1H68.4999V56.49Z" fill="#879EC1"/>
<path d="M69.11 57.1C68.9482 57.1 68.7931 57.0357 68.6787 56.9213C68.5643 56.8069 68.5 56.6518 68.5 56.49V57.1H69.11Z" fill="#879EC1"/>
<path d="M82.75 56.49C82.75 56.6518 82.8143 56.8069 82.9287 56.9213C83.0431 57.0357 83.1982 57.1 83.36 57.1H85C85.1618 57.1 85.3169 57.0357 85.4313 56.9213C85.5457 56.8069 85.61 56.6518 85.61 56.49V54.25H82.75V56.49Z" fill="#879EC1"/>
<path d="M8.6499 57.1001H11.4999V60.0001H8.6499V57.1001Z" fill="#879EC1"/>
<path d="M12.11 59.9999C11.9482 59.9999 11.7931 59.9356 11.6787 59.8212C11.5643 59.7068 11.5 59.5517 11.5 59.3899V59.9999H12.11Z" fill="#879EC1"/>
<path d="M19.44 57.1001H17.8099C17.4731 57.1001 17.2 57.3732 17.2 57.7101V59.3401C17.2 59.677 17.4731 59.9501 17.8099 59.9501H19.44C19.7768 59.9501 20.0499 59.677 20.0499 59.3401V57.7101C20.0499 57.3732 19.7768 57.1001 19.44 57.1001Z" fill="#879EC1"/>
<path d="M25.1399 57.1001H23.5099C23.173 57.1001 22.8999 57.3732 22.8999 57.7101V59.3401C22.8999 59.677 23.173 59.9501 23.5099 59.9501H25.1399C25.4768 59.9501 25.7499 59.677 25.7499 59.3401V57.7101C25.7499 57.3732 25.4768 57.1001 25.1399 57.1001Z" fill="#879EC1"/>
<path d="M34.2999 57.7101V57.1001H33.6899C33.8517 57.1001 34.0069 57.1644 34.1213 57.2788C34.2357 57.3932 34.2999 57.5483 34.2999 57.7101Z" fill="#879EC1"/>
<path d="M34.3 59.3401C34.3 59.5019 34.3643 59.657 34.4787 59.7714C34.5931 59.8858 34.7483 59.9501 34.91 59.9501H37.1501V57.1001H34.3V59.3401Z" fill="#879EC1"/>
<path d="M37.1499 57.1001H39.9999V60.0001H37.1499V57.1001Z" fill="#879EC1"/>
<path d="M42.85 59.3401C42.85 59.5019 42.7857 59.657 42.6713 59.7714C42.5569 59.8858 42.4018 59.9501 42.24 59.9501H40V57.1001H42.85V59.3401Z" fill="#879EC1"/>
<path d="M43.4601 57.1001H42.8501V57.7101C42.8501 57.5483 42.9144 57.3932 43.0288 57.2788C43.1432 57.1644 43.2983 57.1001 43.4601 57.1001Z" fill="#879EC1"/>
<path d="M54.2499 57.7101V57.1001H53.6399C53.8017 57.1001 53.9568 57.1644 54.0712 57.2788C54.1856 57.3932 54.2499 57.5483 54.2499 57.7101Z" fill="#879EC1"/>
<path d="M54.25 57.1001H57.1V60.0001H54.25V57.1001Z" fill="#879EC1"/>
<path d="M57.1001 57.1001H60.0001V60.0001H57.1001V57.1001Z" fill="#879EC1"/>
<path d="M60 57.1001H62.8V60.0001H60V57.1001Z" fill="#879EC1"/>
<path d="M62.8 57.1001H65.6501V60.0001H62.8V57.1001Z" fill="#879EC1"/>
<path d="M65.6499 57.1001H68.4999V60.0001H65.6499V57.1001Z" fill="#879EC1"/>
<path d="M68.5 57.1001H71.35V60.0001H68.5V57.1001Z" fill="#879EC1"/>
<path d="M71.3501 57.1001H74.2001V60.0001H71.3501V57.1001Z" fill="#879EC1"/>
<path d="M74.2 57.1001H77.05V60.0001H74.2V57.1001Z" fill="#879EC1"/>
<path d="M77.05 57.1001H79.9V60.0001H77.05V57.1001Z" fill="#879EC1"/>
<path d="M80.5099 60.0001H82.1399C82.3017 60.0001 82.4568 59.9358 82.5712 59.8214C82.6856 59.707 82.7499 59.5519 82.7499 59.3901V57.7101C82.7499 57.5483 82.6856 57.3932 82.5712 57.2788C82.4568 57.1644 82.3017 57.1001 82.1399 57.1001H79.8999V60.0001H80.5099Z" fill="#879EC1"/>
<path d="M86.2101 57.1001C86.0483 57.1001 85.8932 57.1644 85.7788 57.2788C85.6644 57.3932 85.6001 57.5483 85.6001 57.7101V60.0001H88.4501V57.1001H86.2101Z" fill="#879EC1"/>
<path d="M90.69 57.1001C90.8517 57.1001 91.0069 57.1644 91.1213 57.2788C91.2357 57.3932 91.3 57.5483 91.3 57.7101V60.0001H88.45V57.1001H90.69Z" fill="#879EC1"/>
<path d="M8.6499 60H11.4999V62.8H8.6499V60Z" fill="#879EC1"/>
<path d="M11.5 60H14.35V62.8H11.5V60Z" fill="#879EC1"/>
<path d="M15.0001 62.7999H16.6301C16.7919 62.7999 16.947 62.7357 17.0614 62.6213C17.1758 62.5069 17.2401 62.3517 17.2401 62.1899V60.56C17.2401 60.3982 17.1758 60.243 17.0614 60.1286C16.947 60.0142 16.7919 59.95 16.6301 59.95H14.3501V62.7999H15.0001Z" fill="#879EC1"/>
<path d="M22.2901 59.95H20.66C20.3232 59.95 20.05 60.2231 20.05 60.56V62.1899C20.05 62.5268 20.3232 62.7999 20.66 62.7999H22.2901C22.6269 62.7999 22.9 62.5268 22.9 62.1899V60.56C22.9 60.2231 22.6269 59.95 22.2901 59.95Z" fill="#879EC1"/>
<path d="M28 60H26.36C26.1982 60 26.0431 60.0643 25.9287 60.1787C25.8143 60.2931 25.75 60.4482 25.75 60.61V62.24C25.75 62.4018 25.8143 62.5569 25.9287 62.6713C26.0431 62.7857 26.1982 62.85 26.36 62.85H28.6V60H28Z" fill="#879EC1"/>
<path d="M30.8401 60C31.0019 60 31.157 60.0643 31.2714 60.1787C31.3858 60.2931 31.4501 60.4482 31.4501 60.61V62.8H28.6001V60H30.8401Z" fill="#879EC1"/>
<path d="M45.0901 60H43.4601C43.2983 60 43.1432 60.0643 43.0288 60.1787C42.9144 60.2931 42.8501 60.4482 42.8501 60.61V62.24C42.8501 62.4018 42.9144 62.5569 43.0288 62.6713C43.1432 62.7857 43.2983 62.85 43.4601 62.85H45.7001V60H45.0901Z" fill="#879EC1"/>
<path d="M45.7 60H48.5499V62.8H45.7V60Z" fill="#879EC1"/>
<path d="M49.16 62.7999H50.7901C50.9518 62.7999 51.107 62.7357 51.2214 62.6213C51.3358 62.5069 51.4001 62.3517 51.4001 62.1899V60.56C51.4001 60.3982 51.3358 60.243 51.2214 60.1286C51.107 60.0142 50.9518 59.95 50.7901 59.95H48.55V62.7999H49.16Z" fill="#879EC1"/>
<path d="M53.6399 62.7999C53.8017 62.7999 53.9568 62.7357 54.0712 62.6213C54.1856 62.5069 54.2499 62.3517 54.2499 62.1899V62.7999H53.6399Z" fill="#879EC1"/>
<path d="M54.25 60H57.1V62.8H54.25V60Z" fill="#879EC1"/>
<path d="M57.7101 60H57.1001V60.61C57.1001 60.4482 57.1644 60.2931 57.2788 60.1787C57.3932 60.0643 57.5483 60 57.7101 60Z" fill="#879EC1"/>
<path d="M57.7101 62.7999C57.5483 62.7999 57.3932 62.7357 57.2788 62.6213C57.1644 62.5069 57.1001 62.3517 57.1001 62.1899V62.7999H57.7101Z" fill="#879EC1"/>
<path d="M65.65 60.56V60H65C65.1603 59.9889 65.3184 60.0415 65.4401 60.1464C65.5618 60.2512 65.6372 60.3999 65.65 60.56Z" fill="#879EC1"/>
<path d="M65.6499 60H68.4999V62.8H65.6499V60Z" fill="#879EC1"/>
<path d="M69.11 60H68.5V60.61C68.5 60.4482 68.5643 60.2931 68.6787 60.1787C68.7931 60.0643 68.9482 60 69.11 60Z" fill="#879EC1"/>
<path d="M71.35 60.56V60H70.74C70.8935 59.9995 71.0415 60.0568 71.1546 60.1606C71.2676 60.2644 71.3374 60.407 71.35 60.56Z" fill="#879EC1"/>
<path d="M71.3501 60H74.2001V62.8H71.3501V60Z" fill="#879EC1"/>
<path d="M74.81 60H74.2V60.61C74.2 60.4482 74.2642 60.2931 74.3786 60.1787C74.493 60.0643 74.6482 60 74.81 60Z" fill="#879EC1"/>
<path d="M74.81 62.7999C74.6482 62.7999 74.493 62.7357 74.3786 62.6213C74.2642 62.5069 74.2 62.3517 74.2 62.1899V62.7999H74.81Z" fill="#879EC1"/>
<path d="M85.6001 62.19C85.6001 62.3518 85.6644 62.5069 85.7788 62.6213C85.8932 62.7357 86.0483 62.8 86.2101 62.8H88.4501V60H85.6001V62.19Z" fill="#879EC1"/>
<path d="M88.45 60H91.3V62.8H88.45V60Z" fill="#879EC1"/>
<path d="M8.6499 62.8H11.4999V65.6501H8.6499V62.8Z" fill="#879EC1"/>
<path d="M11.5 62.8H14.35V65.6501H11.5V62.8Z" fill="#879EC1"/>
<path d="M14.9999 62.8H14.3899V63.41C14.3899 63.2483 14.4542 63.0931 14.5686 62.9787C14.683 62.8643 14.8381 62.8 14.9999 62.8Z" fill="#879EC1"/>
<path d="M14.9999 65.65C14.8381 65.65 14.683 65.5858 14.5686 65.4714C14.4542 65.357 14.3899 65.2018 14.3899 65.04V65.65H14.9999Z" fill="#879EC1"/>
<path d="M19.44 62.8H17.8099C17.4731 62.8 17.2 63.0732 17.2 63.41V65.0401C17.2 65.3769 17.4731 65.6501 17.8099 65.6501H19.44C19.7768 65.6501 20.0499 65.3769 20.0499 65.0401V63.41C20.0499 63.0732 19.7768 62.8 19.44 62.8Z" fill="#879EC1"/>
<path d="M28.6 63.41V62.8H28C28.16 62.8027 28.3126 62.8681 28.4249 62.9822C28.5371 63.0963 28.6 63.25 28.6 63.41Z" fill="#879EC1"/>
<path d="M28.6001 65C28.6001 65.1618 28.6644 65.317 28.7788 65.4314C28.8932 65.5458 29.0483 65.6101 29.2101 65.6101H30.8401C31.0019 65.6101 31.157 65.5458 31.2714 65.4314C31.3858 65.317 31.4501 65.1618 31.4501 65V62.8H28.6001V65Z" fill="#879EC1"/>
<path d="M39.3899 65.65C39.4735 65.6502 39.5562 65.6332 39.633 65.6001C39.7097 65.5669 39.7788 65.5184 39.836 65.4574C39.8932 65.3965 39.9373 65.3244 39.9655 65.2457C39.9937 65.167 40.0054 65.0834 39.9999 65V65.61L39.3899 65.65Z" fill="#879EC1"/>
<path d="M42.85 65V63.41C42.85 63.2483 42.7857 63.0931 42.6713 62.9787C42.5569 62.8643 42.4018 62.8 42.24 62.8H40.61C40.4482 62.8 40.2931 62.8643 40.1787 62.9787C40.0643 63.0931 40 63.2483 40 63.41V63.41V65.6501H42.85V65Z" fill="#879EC1"/>
<path d="M45.7001 63.41V62.8H45.0901C45.2519 62.8 45.407 62.8643 45.5214 62.9787C45.6358 63.0931 45.7001 63.2483 45.7001 63.41Z" fill="#879EC1"/>
<path d="M45.7 62.8H48.5499V65.6501H45.7V62.8Z" fill="#879EC1"/>
<path d="M49.16 62.8H48.55V63.41C48.55 63.2483 48.6143 63.0931 48.7287 62.9787C48.8431 62.8643 48.9983 62.8 49.16 62.8Z" fill="#879EC1"/>
<path d="M51.9999 62.8C51.8381 62.8 51.683 62.8643 51.5686 62.9787C51.4542 63.0931 51.3899 63.2483 51.3899 63.41V65.6501H54.2399V62.8H51.9999Z" fill="#879EC1"/>
<path d="M54.25 62.8H57.1V65.6501H54.25V62.8Z" fill="#879EC1"/>
<path d="M57.1001 62.8H60.0001V65.6501H57.1001V62.8Z" fill="#879EC1"/>
<path d="M60.56 65.6501H62.19C62.2736 65.6502 62.3563 65.6332 62.4331 65.6001C62.5098 65.567 62.5789 65.5184 62.6361 65.4575C62.6933 65.3965 62.7374 65.3245 62.7656 65.2458C62.7938 65.1671 62.8055 65.0835 62.8 65V63.41C62.8 63.2483 62.7357 63.0931 62.6213 62.9787C62.5069 62.8643 62.3518 62.8 62.19 62.8H60V65.6501H60.56Z" fill="#879EC1"/>
<path d="M65 65.65C65.1618 65.65 65.3169 65.5858 65.4313 65.4714C65.5457 65.357 65.61 65.2018 65.61 65.04V65.65H65Z" fill="#879EC1"/>
<path d="M65.6499 62.8H68.4999V65.6501H65.6499V62.8Z" fill="#879EC1"/>
<path d="M70.74 65.65C70.9018 65.65 71.0569 65.5858 71.1713 65.4714C71.2857 65.357 71.35 65.2018 71.35 65.04V65.65H70.74Z" fill="#879EC1"/>
<path d="M69.1101 65.65C69.0265 65.6502 68.9438 65.6332 68.867 65.6001C68.7903 65.5669 68.7212 65.5184 68.664 65.4574C68.6068 65.3965 68.5627 65.3244 68.5345 65.2457C68.5063 65.167 68.4946 65.0834 68.5001 65V65.61L69.1101 65.65Z" fill="#879EC1"/>
<path d="M71.3501 62.8H74.2001V65.6501H71.3501V62.8Z" fill="#879EC1"/>
<path d="M74.2 62.8H77.05V65.6501H74.2V62.8Z" fill="#879EC1"/>
<path d="M77.05 62.8H79.9V65.6501H77.05V62.8Z" fill="#879EC1"/>
<path d="M79.8999 62.8H82.7499V65.6501H79.8999V62.8Z" fill="#879EC1"/>
<path d="M85 62.8C85.1618 62.8 85.3169 62.8643 85.4313 62.9787C85.5457 63.0931 85.61 63.2483 85.61 63.41V65.6501H82.75V62.8H85Z" fill="#879EC1"/>
<path d="M88.4501 63.41V62.8H87.8401C88.0019 62.8 88.157 62.8643 88.2714 62.9787C88.3858 63.0931 88.4501 63.2483 88.4501 63.41Z" fill="#879EC1"/>
<path d="M87.8401 65.65C88.0019 65.65 88.157 65.5858 88.2714 65.4714C88.3858 65.357 88.4501 65.2018 88.4501 65.04V65.65H87.8401Z" fill="#879EC1"/>
<path d="M86.2099 65.65C86.1264 65.6502 86.0436 65.6332 85.9669 65.6001C85.8901 65.5669 85.821 65.5184 85.7638 65.4574C85.7066 65.3965 85.6626 65.3244 85.6344 65.2457C85.6062 65.167 85.5945 65.0834 85.5999 65V65.61L86.2099 65.65Z" fill="#879EC1"/>
<path d="M88.45 62.8H91.3V65.6501H88.45V62.8Z" fill="#879EC1"/>
<path d="M8.6499 67.8899C8.6499 68.0517 8.71417 68.2068 8.82857 68.3212C8.94296 68.4356 9.09812 68.4999 9.2599 68.4999H11.4999V65.6499H8.6499V67.8899Z" fill="#879EC1"/>
<path d="M11.5 65.6499H14.35V68.4999H11.5V65.6499Z" fill="#879EC1"/>
<path d="M15.0001 68.4999H16.6301C16.7919 68.4999 16.947 68.4356 17.0614 68.3212C17.1758 68.2068 17.2401 68.0517 17.2401 67.8899V66.2599C17.2401 66.0981 17.1758 65.943 17.0614 65.8286C16.947 65.7142 16.7919 65.6499 16.6301 65.6499H14.3501V68.4999H15.0001Z" fill="#879EC1"/>
<path d="M22.2901 65.6499H20.66C20.3232 65.6499 20.05 65.923 20.05 66.2599V67.8899C20.05 68.2268 20.3232 68.4999 20.66 68.4999H22.2901C22.6269 68.4999 22.9 68.2268 22.9 67.8899V66.2599C22.9 65.923 22.6269 65.6499 22.2901 65.6499Z" fill="#879EC1"/>
<path d="M27.99 65.6499H26.36C26.0231 65.6499 25.75 65.923 25.75 66.2599V67.8899C25.75 68.2268 26.0231 68.4999 26.36 68.4999H27.99C28.3269 68.4999 28.6 68.2268 28.6 67.8899V66.2599C28.6 65.923 28.3269 65.6499 27.99 65.6499Z" fill="#879EC1"/>
<path d="M37.7599 65.6499C37.5981 65.6499 37.443 65.7142 37.3286 65.8286C37.2142 65.943 37.1499 66.0981 37.1499 66.2599V68.4999H39.9999V65.6499H37.7599Z" fill="#879EC1"/>
<path d="M42.85 67.8899C42.85 68.0517 42.7857 68.2068 42.6713 68.3212C42.5569 68.4356 42.4018 68.4999 42.24 68.4999H40V65.6499H42.85V67.8899Z" fill="#879EC1"/>
<path d="M45.0901 68.4999C45.2519 68.4999 45.407 68.4356 45.5214 68.3212C45.6358 68.2068 45.7001 68.0517 45.7001 67.8899V68.4999H45.0901Z" fill="#879EC1"/>
<path d="M45.7 65.6499H48.5499V68.4999H45.7V65.6499Z" fill="#879EC1"/>
<path d="M51.3999 67.8899C51.3999 68.0517 51.4642 68.2068 51.5786 68.3212C51.693 68.4356 51.8481 68.4999 52.0099 68.4999H54.2499V65.6499H51.3999V67.8899Z" fill="#879EC1"/>
<path d="M54.25 65.6499H57.1V68.4999H54.25V65.6499Z" fill="#879EC1"/>
<path d="M60.0001 67.8899C60.0001 68.0517 59.9358 68.2068 59.8214 68.3212C59.707 68.4356 59.5519 68.4999 59.3901 68.4999H57.1001V65.6499H60.0001V67.8899Z" fill="#879EC1"/>
<path d="M60.56 65.6499H60V66.2599C60 66.0981 60.0643 65.943 60.1787 65.8286C60.2931 65.7142 60.4482 65.6499 60.61 65.6499H60.56Z" fill="#879EC1"/>
<path d="M63.41 65.6499C63.2483 65.6499 63.0931 65.7142 62.9787 65.8286C62.8643 65.943 62.8 66.0981 62.8 66.2599V68.4999H65.6501V65.6499H63.41Z" fill="#879EC1"/>
<path d="M65.6499 65.6499H68.4999V68.4999H65.6499V65.6499Z" fill="#879EC1"/>
<path d="M68.5 65.6499H71.35V68.4999H68.5V65.6499Z" fill="#879EC1"/>
<path d="M71.3501 65.6499H74.2001V68.4999H71.3501V65.6499Z" fill="#879EC1"/>
<path d="M74.2 65.6499H77.05V68.4999H74.2V65.6499Z" fill="#879EC1"/>
<path d="M77.05 65.6499H79.9V68.4999H77.05V65.6499Z" fill="#879EC1"/>
<path d="M80.5099 65.6499H79.8999V66.2599C79.8999 66.0981 79.9642 65.943 80.0786 65.8286C80.193 65.7142 80.3481 65.6499 80.5099 65.6499V65.6499Z" fill="#879EC1"/>
<path d="M82.7499 66.2599V65.6499H82.1399C82.3017 65.6499 82.4568 65.7142 82.5712 65.8286C82.6856 65.943 82.7499 66.0981 82.7499 66.2599Z" fill="#879EC1"/>
<path d="M82.75 65.6499H85.6V68.4999H82.75V65.6499Z" fill="#879EC1"/>
<path d="M85.6001 65.6499H88.4501V68.4999H85.6001V65.6499Z" fill="#879EC1"/>
<path d="M88.45 65.6499H91.3V68.4999H88.45V65.6499Z" fill="#879EC1"/>
<path d="M33.6899 68.5H32.06C31.7231 68.5 31.45 68.7731 31.45 69.11V70.74C31.45 71.0769 31.7231 71.35 32.06 71.35H33.6899C34.0268 71.35 34.2999 71.0769 34.2999 70.74V69.11C34.2999 68.7731 34.0268 68.5 33.6899 68.5Z" fill="#879EC1"/>
<path d="M37.1499 70.74C37.1499 70.9018 37.2142 71.0569 37.3286 71.1713C37.443 71.2857 37.5981 71.35 37.7599 71.35H39.3899C39.5517 71.35 39.7068 71.2857 39.8212 71.1713C39.9356 71.0569 39.9999 70.9018 39.9999 70.74V68.5H37.1499V70.74Z" fill="#879EC1"/>
<path d="M40.61 68.5H40V69.11C40 68.9482 40.0643 68.7931 40.1787 68.6787C40.2931 68.5643 40.4482 68.5 40.61 68.5V68.5Z" fill="#879EC1"/>
<path d="M45.0901 68.5H43.4601C43.2983 68.5 43.1432 68.5643 43.0288 68.6787C42.9144 68.7931 42.8501 68.9482 42.8501 69.11V70.74C42.8501 70.9018 42.9144 71.0569 43.0288 71.1713C43.1432 71.2857 43.2983 71.35 43.4601 71.35H45.7001V68.5H45.0901Z" fill="#879EC1"/>
<path d="M45.7 68.5H48.5499V71.35H45.7V68.5Z" fill="#879EC1"/>
<path d="M62.8 70.74C62.8 70.9018 62.8643 71.0569 62.9787 71.1713C63.0931 71.2857 63.2483 71.35 63.41 71.35H65.6501V68.5H62.8V70.74Z" fill="#879EC1"/>
<path d="M65.6499 68.5H68.4999V71.35H65.6499V68.5Z" fill="#879EC1"/>
<path d="M69.11 68.5H68.5V69.11C68.5 68.9482 68.5643 68.7931 68.6787 68.6787C68.7931 68.5643 68.9482 68.5 69.11 68.5Z" fill="#879EC1"/>
<path d="M77.0499 69.11V68.5H76.4399C76.6017 68.5 76.7569 68.5643 76.8713 68.6787C76.9857 68.7931 77.0499 68.9482 77.0499 69.11Z" fill="#879EC1"/>
<path d="M77.05 68.5H79.9V71.35H77.05V68.5Z" fill="#879EC1"/>
<path d="M80.5099 71.35C80.3481 71.35 80.193 71.2857 80.0786 71.1713C79.9642 71.0569 79.8999 70.9018 79.8999 70.74V71.35H80.5099Z" fill="#879EC1"/>
<path d="M82.75 70.74C82.75 70.9018 82.8143 71.0569 82.9287 71.1713C83.0431 71.2857 83.1982 71.35 83.36 71.35H85C85.1618 71.35 85.3169 71.2857 85.4313 71.1713C85.5457 71.0569 85.61 70.9018 85.61 70.74V68.5H82.75V70.74Z" fill="#879EC1"/>
<path d="M86.2101 68.5H85.6001V69.11C85.6001 68.9482 85.6644 68.7931 85.7788 68.6787C85.8932 68.5643 86.0483 68.5 86.2101 68.5Z" fill="#879EC1"/>
<path d="M88.4501 69.11V68.5H87.8401C88.0019 68.5 88.157 68.5643 88.2714 68.6787C88.3858 68.7931 88.4501 68.9482 88.4501 69.11Z" fill="#879EC1"/>
<path d="M88.45 70.74C88.45 70.9018 88.5142 71.0569 88.6286 71.1713C88.743 71.2857 88.8982 71.35 89.06 71.35H90.69C90.8517 71.35 91.0069 71.2857 91.1213 71.1713C91.2357 71.0569 91.3 70.9018 91.3 70.74V68.5H88.45V70.74Z" fill="#879EC1"/>
<path d="M37.1501 73.5899V71.9999C37.1501 71.8381 37.0858 71.683 36.9714 71.5686C36.857 71.4542 36.7018 71.3899 36.5401 71.3899H34.91C34.7483 71.3899 34.5931 71.4542 34.4787 71.5686C34.3643 71.683 34.3 71.8381 34.3 71.9999V74.1999H37.1501V73.5899Z" fill="#879EC1"/>
<path d="M39.3899 74.2001C39.5517 74.2001 39.7068 74.1358 39.8212 74.0214C39.9356 73.907 39.9999 73.7519 39.9999 73.5901V74.2001H39.3899Z" fill="#879EC1"/>
<path d="M37.7599 74.2001C37.5981 74.2001 37.443 74.1358 37.3286 74.0214C37.2142 73.907 37.1499 73.7519 37.1499 73.5901V74.2001H37.7599Z" fill="#879EC1"/>
<path d="M42.85 73.5899V71.9999C42.85 71.8381 42.7857 71.683 42.6713 71.5686C42.5569 71.4542 42.4018 71.3899 42.24 71.3899H40.61C40.4482 71.3899 40.2931 71.4542 40.1787 71.5686C40.0643 71.683 40 71.8381 40 71.9999V71.9999V74.1999H42.85V73.5899Z" fill="#879EC1"/>
<path d="M45.7001 71.9999V71.3899H45.0901C45.2519 71.3899 45.407 71.4542 45.5214 71.5686C45.6358 71.683 45.7001 71.8381 45.7001 71.9999Z" fill="#879EC1"/>
<path d="M45.0901 74.2001C45.2519 74.2001 45.407 74.1358 45.5214 74.0214C45.6358 73.907 45.7001 73.7519 45.7001 73.5901V74.2001H45.0901Z" fill="#879EC1"/>
<path d="M43.4601 74.2001C43.2983 74.2001 43.1432 74.1358 43.0288 74.0214C42.9144 73.907 42.8501 73.7519 42.8501 73.5901V74.2001H43.4601Z" fill="#879EC1"/>
<path d="M45.7 71.3501H48.5499V74.2001H45.7V71.3501Z" fill="#879EC1"/>
<path d="M65.65 72V71.39H65C65.0834 71.3845 65.167 71.3962 65.2457 71.4244C65.3244 71.4526 65.3965 71.4967 65.4574 71.5539C65.5184 71.6111 65.5669 71.6802 65.6001 71.7569C65.6332 71.8337 65.6502 71.9164 65.65 72Z" fill="#879EC1"/>
<path d="M65 74.2001C65.1618 74.2001 65.3169 74.1358 65.4313 74.0214C65.5457 73.907 65.61 73.7519 65.61 73.5901V74.2001H65Z" fill="#879EC1"/>
<path d="M65.6499 71.3501H68.4999V74.2001H65.6499V71.3501Z" fill="#879EC1"/>
<path d="M73.5901 71.3501H71.9601C71.6232 71.3501 71.3501 71.6232 71.3501 71.9601V73.5901C71.3501 73.927 71.6232 74.2001 71.9601 74.2001H73.5901C73.927 74.2001 74.2001 73.927 74.2001 73.5901V71.9601C74.2001 71.6232 73.927 71.3501 73.5901 71.3501Z" fill="#879EC1"/>
<path d="M77.05 71.3501H79.9V74.2001H77.05V71.3501Z" fill="#879EC1"/>
<path d="M80.5099 74.1999H82.1399C82.3017 74.1999 82.4568 74.1356 82.5712 74.0212C82.6856 73.9068 82.7499 73.7517 82.7499 73.5899V71.9999C82.7499 71.8381 82.6856 71.683 82.5712 71.5686C82.4568 71.4542 82.3017 71.3899 82.1399 71.3899H79.8999V74.1999H80.5099Z" fill="#879EC1"/>
<path d="M33.6899 77.0499C33.8517 77.0499 34.0069 76.9857 34.1213 76.8713C34.2357 76.7569 34.2999 76.6017 34.2999 76.4399V77.0499H33.6899Z" fill="#879EC1"/>
<path d="M34.3 74.2H37.1501V77.05H34.3V74.2Z" fill="#879EC1"/>
<path d="M37.1499 74.2H39.9999V77.05H37.1499V74.2Z" fill="#879EC1"/>
<path d="M40 74.2H42.85V77.05H40V74.2Z" fill="#879EC1"/>
<path d="M42.8501 74.2H45.7001V77.05H42.8501V74.2Z" fill="#879EC1"/>
<path d="M45.7 74.2H48.5499V77.05H45.7V74.2Z" fill="#879EC1"/>
<path d="M54.2499 76.44V74.81C54.2499 74.6482 54.1856 74.493 54.0712 74.3786C53.9568 74.2642 53.8017 74.2 53.6399 74.2H51.9999C51.8381 74.2 51.683 74.2642 51.5686 74.3786C51.4542 74.493 51.3899 74.6482 51.3899 74.81V77.05H54.2399L54.2499 76.44Z" fill="#879EC1"/>
<path d="M59.3401 74.2H57.7101C57.3732 74.2 57.1001 74.4731 57.1001 74.81V76.44C57.1001 76.7769 57.3732 77.05 57.7101 77.05H59.3401C59.677 77.05 59.9501 76.7769 59.9501 76.44V74.81C59.9501 74.4731 59.677 74.2 59.3401 74.2Z" fill="#879EC1"/>
<path d="M65 74.2H63.41C63.2483 74.2 63.0931 74.2642 62.9787 74.3786C62.8643 74.493 62.8 74.6482 62.8 74.81V76.44C62.8 76.6017 62.8643 76.7569 62.9787 76.8713C63.0931 76.9857 63.2483 77.05 63.41 77.05H65.6501V74.2H65Z" fill="#879EC1"/>
<path d="M65.6499 74.2H68.4999V77.05H65.6499V74.2Z" fill="#879EC1"/>
<path d="M69.11 77.0499C68.9482 77.0499 68.7931 76.9857 68.6787 76.8713C68.5643 76.7569 68.5 76.6017 68.5 76.4399V77.0499H69.11Z" fill="#879EC1"/>
<path d="M76.4399 77.0499C76.6017 77.0499 76.7569 76.9857 76.8713 76.8713C76.9857 76.7569 77.0499 76.6017 77.0499 76.4399V77.0499H76.4399Z" fill="#879EC1"/>
<path d="M77.05 74.2H79.9V77.05H77.05V74.2Z" fill="#879EC1"/>
<path d="M80.5099 74.2H79.8999V74.81C79.8999 74.6482 79.9642 74.493 80.0786 74.3786C80.193 74.2642 80.3481 74.2 80.5099 74.2V74.2Z" fill="#879EC1"/>
<path d="M80.5099 77.0499C80.3481 77.0499 80.193 76.9857 80.0786 76.8713C79.9642 76.7569 79.8999 76.6017 79.8999 76.4399V77.0499H80.5099Z" fill="#879EC1"/>
<path d="M84.99 74.2H83.36C83.0231 74.2 82.75 74.4731 82.75 74.81V76.44C82.75 76.7769 83.0231 77.05 83.36 77.05H84.99C85.3269 77.05 85.6 76.7769 85.6 76.44V74.81C85.6 74.4731 85.3269 74.2 84.99 74.2Z" fill="#879EC1"/>
<path d="M32.06 77.05C31.8982 77.05 31.743 77.1143 31.6286 77.2287C31.5142 77.3431 31.45 77.4983 31.45 77.66V79.9H34.2999V77.05H32.06Z" fill="#879EC1"/>
<path d="M34.3 77.05H37.1501V79.9H34.3V77.05Z" fill="#879EC1"/>
<path d="M37.1499 77.05H39.9999V79.9H37.1499V77.05Z" fill="#879EC1"/>
<path d="M40 77.05H42.85V79.9H40V77.05Z" fill="#879EC1"/>
<path d="M42.8501 77.05H45.7001V79.9H42.8501V77.05Z" fill="#879EC1"/>
<path d="M45.7 77.05H48.5499V79.9H45.7V77.05Z" fill="#879EC1"/>
<path d="M50.79 79.9C50.9518 79.9 51.107 79.8358 51.2214 79.7214C51.3358 79.607 51.4 79.4518 51.4 79.29V79.9H50.79Z" fill="#879EC1"/>
<path d="M49.16 79.9C48.9983 79.9 48.8431 79.8358 48.7287 79.7214C48.6143 79.607 48.55 79.4518 48.55 79.29V79.9H49.16Z" fill="#879EC1"/>
<path d="M51.3999 77.05H54.2499V79.9H51.3999V77.05Z" fill="#879EC1"/>
<path d="M54.86 79.9C54.6982 79.9 54.5431 79.8358 54.4287 79.7214C54.3143 79.607 54.25 79.4518 54.25 79.29V79.9H54.86Z" fill="#879EC1"/>
<path d="M62.7999 79.29V77.66C62.7999 77.4983 62.7357 77.3431 62.6213 77.2287C62.5069 77.1143 62.3517 77.05 62.1899 77.05H60.56C60.3982 77.05 60.243 77.1143 60.1286 77.2287C60.0142 77.3431 59.95 77.4983 59.95 77.66V79.9H62.7999V79.29Z" fill="#879EC1"/>
<path d="M65.65 77.6599V77.0499H65C65.0834 77.0444 65.167 77.0561 65.2457 77.0843C65.3244 77.1125 65.3965 77.1566 65.4574 77.2138C65.5184 77.271 65.5669 77.3401 65.6001 77.4168C65.6332 77.4936 65.6502 77.5763 65.65 77.6599Z" fill="#879EC1"/>
<path d="M63.41 79.9C63.2483 79.9 63.0931 79.8358 62.9787 79.7214C62.8643 79.607 62.8 79.4518 62.8 79.29V79.9H63.41Z" fill="#879EC1"/>
<path d="M65.6499 79.29C65.6499 79.4518 65.7142 79.607 65.8286 79.7214C65.943 79.8358 66.0981 79.9 66.2599 79.9H68.4999V77.05H65.6499V79.29Z" fill="#879EC1"/>
<path d="M68.5 77.05H71.35V79.9H68.5V77.05Z" fill="#879EC1"/>
<path d="M71.3501 77.05H74.2001V79.9H71.3501V77.05Z" fill="#879EC1"/>
<path d="M74.2 77.05H77.05V79.9H74.2V77.05Z" fill="#879EC1"/>
<path d="M77.05 77.05H79.9V79.9H77.05V77.05Z" fill="#879EC1"/>
<path d="M82.1399 77.05C82.3017 77.05 82.4568 77.1143 82.5712 77.2287C82.6856 77.3431 82.7499 77.4983 82.7499 77.66V79.9H79.8999V77.05H82.1399Z" fill="#879EC1"/>
<path d="M85 79.9C85.1618 79.9 85.3169 79.8358 85.4313 79.7214C85.5457 79.607 85.61 79.4518 85.61 79.29V79.9H85Z" fill="#879EC1"/>
<path d="M83.36 79.9C83.1982 79.9 83.0431 79.8358 82.9287 79.7214C82.8143 79.607 82.75 79.4518 82.75 79.29V79.9H83.36Z" fill="#879EC1"/>
<path d="M88.4501 79.29V77.66C88.4501 77.4983 88.3858 77.3431 88.2714 77.2287C88.157 77.1143 88.0019 77.05 87.8401 77.05H86.2101C86.0483 77.05 85.8932 77.1143 85.7788 77.2287C85.6644 77.3431 85.6001 77.4983 85.6001 77.66V79.9H88.4501V79.29Z" fill="#879EC1"/>
<path d="M31.45 82.1399C31.45 82.3017 31.5142 82.4568 31.6286 82.5712C31.743 82.6856 31.8982 82.7499 32.06 82.7499H33.6899C33.8517 82.7499 34.0069 82.6856 34.1213 82.5712C34.2357 82.4568 34.2999 82.3017 34.2999 82.1399V79.8999H31.45V82.1399Z" fill="#879EC1"/>
<path d="M34.91 79.8999H34.3V80.5099C34.3 80.3481 34.3643 80.193 34.4787 80.0786C34.5931 79.9642 34.7483 79.8999 34.91 79.8999V79.8999Z" fill="#879EC1"/>
<path d="M37.15 80.5099V79.8999H36.54C36.7018 79.8999 36.857 79.9642 36.9714 80.0786C37.0858 80.193 37.15 80.3481 37.15 80.5099V80.5099Z" fill="#879EC1"/>
<path d="M37.1499 79.8999H39.9999V82.7499H37.1499V79.8999Z" fill="#879EC1"/>
<path d="M40.61 79.8999H40V80.5099C40 80.3481 40.0643 80.193 40.1787 80.0786C40.2931 79.9642 40.4482 79.8999 40.61 79.8999V79.8999Z" fill="#879EC1"/>
<path d="M40.61 82.7499C40.4482 82.7499 40.2931 82.6856 40.1787 82.5712C40.0643 82.4568 40 82.3017 40 82.1399V82.7499H40.61Z" fill="#879EC1"/>
<path d="M45.7001 80.5099V79.8999H45.0901C45.2519 79.8999 45.407 79.9642 45.5214 80.0786C45.6358 80.193 45.7001 80.3481 45.7001 80.5099V80.5099Z" fill="#879EC1"/>
<path d="M45.0901 82.7499C45.2519 82.7499 45.407 82.6856 45.5214 82.5712C45.6358 82.4568 45.7001 82.3017 45.7001 82.1399V82.7499H45.0901Z" fill="#879EC1"/>
<path d="M45.7 79.8999H48.5499V82.7499H45.7V79.8999Z" fill="#879EC1"/>
<path d="M48.55 79.8999H51.4001V82.7499H48.55V79.8999Z" fill="#879EC1"/>
<path d="M51.3999 79.8999H54.2499V82.7499H51.3999V79.8999Z" fill="#879EC1"/>
<path d="M56.49 79.8999C56.6518 79.8999 56.8069 79.9642 56.9213 80.0786C57.0357 80.193 57.1 80.3481 57.1 80.5099V82.7499H54.25V79.8999H56.49Z" fill="#879EC1"/>
<path d="M57.7101 82.7499C57.5483 82.7499 57.3932 82.6856 57.2788 82.5712C57.1644 82.4568 57.1001 82.3017 57.1001 82.1399V82.7499H57.7101Z" fill="#879EC1"/>
<path d="M60 82.1399C60 82.3017 60.0643 82.4568 60.1787 82.5712C60.2931 82.6856 60.4482 82.7499 60.61 82.7499H62.8V79.8999H60V82.1399Z" fill="#879EC1"/>
<path d="M63.41 82.7499H65C65.1618 82.7499 65.317 82.6856 65.4314 82.5712C65.5458 82.4568 65.6101 82.3017 65.6101 82.1399V80.5099C65.6101 80.3481 65.5458 80.193 65.4314 80.0786C65.317 79.9642 65.1618 79.8999 65 79.8999H62.8V82.7499H63.41Z" fill="#879EC1"/>
<path d="M74.2001 80.5099V79.8999H73.5901C73.7519 79.8999 73.907 79.9642 74.0214 80.0786C74.1358 80.193 74.2001 80.3481 74.2001 80.5099V80.5099Z" fill="#879EC1"/>
<path d="M74.2 79.8999H77.05V82.7499H74.2V79.8999Z" fill="#879EC1"/>
<path d="M77.66 79.8999H77.05V80.5099C77.05 80.3481 77.1143 80.193 77.2287 80.0786C77.3431 79.9642 77.4983 79.8999 77.66 79.8999V79.8999Z" fill="#879EC1"/>
<path d="M79.9 80.5099V79.8999H79.29C79.4518 79.8999 79.607 79.9642 79.7214 80.0786C79.8358 80.193 79.9 80.3481 79.9 80.5099V80.5099Z" fill="#879EC1"/>
<path d="M79.8999 79.8999H82.7499V82.7499H79.8999V79.8999Z" fill="#879EC1"/>
<path d="M82.75 79.8999H85.6V82.7499H82.75V79.8999Z" fill="#879EC1"/>
<path d="M85.6001 79.8999H88.4501V82.7499H85.6001V79.8999Z" fill="#879EC1"/>
<path d="M89.06 82.7499C88.8982 82.7499 88.743 82.6856 88.6286 82.5712C88.5142 82.4568 88.45 82.3017 88.45 82.1399V82.7499H89.06Z" fill="#879EC1"/>
<path d="M37.1499 85C37.1499 85.1618 37.2142 85.3169 37.3286 85.4313C37.443 85.5457 37.5981 85.61 37.7599 85.61H39.9999V82.75H37.1499V85Z" fill="#879EC1"/>
<path d="M40 82.75H42.85V85.6H40V82.75Z" fill="#879EC1"/>
<path d="M42.8501 82.75H45.7001V85.6H42.8501V82.75Z" fill="#879EC1"/>
<path d="M48.5499 85C48.5499 85.1618 48.4857 85.3169 48.3713 85.4313C48.2569 85.5457 48.1017 85.61 47.9399 85.61H45.7V82.75H48.5499V85Z" fill="#879EC1"/>
<path d="M49.16 82.75H48.55V83.36C48.55 83.1982 48.6143 83.0431 48.7287 82.9287C48.8431 82.8143 48.9983 82.75 49.16 82.75Z" fill="#879EC1"/>
<path d="M54.2499 83.36V82.75H53.6399C53.8017 82.75 53.9568 82.8143 54.0712 82.9287C54.1856 83.0431 54.2499 83.1982 54.2499 83.36Z" fill="#879EC1"/>
<path d="M53.6399 85.6C53.8017 85.6 53.9568 85.5357 54.0712 85.4213C54.1856 85.3069 54.2499 85.1518 54.2499 84.99V85.6H53.6399Z" fill="#879EC1"/>
<path d="M54.25 82.75H57.1V85.6H54.25V82.75Z" fill="#879EC1"/>
<path d="M59.3401 82.75C59.5019 82.75 59.657 82.8143 59.7714 82.9287C59.8858 83.0431 59.9501 83.1982 59.9501 83.36V85.6H57.1001V82.75H59.3401Z" fill="#879EC1"/>
<path d="M60.56 85.6C60.4087 85.5876 60.2676 85.5192 60.164 85.4083C60.0605 85.2973 60.002 85.1518 60 85V85.61L60.56 85.6Z" fill="#879EC1"/>
<path d="M74.2 85C74.2 85.1618 74.2642 85.3169 74.3786 85.4313C74.493 85.5457 74.6482 85.61 74.81 85.61H76.44C76.6017 85.61 76.7569 85.5457 76.8713 85.4313C76.9857 85.3169 77.05 85.1618 77.05 85V82.75H74.2V85Z" fill="#879EC1"/>
<path d="M79.8999 82.75H82.7499V85.6H79.8999V82.75Z" fill="#879EC1"/>
<path d="M82.75 82.75H85.6V85.6H82.75V82.75Z" fill="#879EC1"/>
<path d="M85.6001 82.75H88.4501V85.6H85.6001V82.75Z" fill="#879EC1"/>
<path d="M89.06 85.6H90.69C90.85 85.6 91.0037 85.5371 91.1178 85.4249C91.2319 85.3126 91.2973 85.16 91.3 85V83.36C91.3 83.1982 91.2357 83.0431 91.1213 82.9287C91.0069 82.8143 90.8517 82.75 90.69 82.75H88.45V85.6H89.06Z" fill="#879EC1"/>
<path d="M32.06 85.6001C31.8982 85.6001 31.743 85.6644 31.6286 85.7788C31.5142 85.8932 31.45 86.0483 31.45 86.2101V88.4501H34.2999V85.6001H32.06Z" fill="#879EC1"/>
<path d="M34.91 88.4501H36.5401C36.7018 88.4501 36.857 88.3858 36.9714 88.2714C37.0858 88.157 37.1501 88.0019 37.1501 87.8401V86.2101C37.1501 86.0483 37.0858 85.8932 36.9714 85.7788C36.857 85.6644 36.7018 85.6001 36.5401 85.6001H34.3V88.4501H34.91Z" fill="#879EC1"/>
<path d="M39.9999 86.2101V85.6001H39.3899C39.5517 85.6001 39.7068 85.6644 39.8212 85.7788C39.9356 85.8932 39.9999 86.0483 39.9999 86.2101V86.2101Z" fill="#879EC1"/>
<path d="M40 87.8401C40 88.0019 40.0643 88.157 40.1787 88.2714C40.2931 88.3858 40.4482 88.4501 40.61 88.4501H42.24C42.4018 88.4501 42.5569 88.3858 42.6713 88.2714C42.7857 88.157 42.85 88.0019 42.85 87.8401V85.6001H40V87.8401Z" fill="#879EC1"/>
<path d="M43.4601 85.6001H42.8501V86.2101C42.8501 86.0483 42.9144 85.8932 43.0288 85.7788C43.1432 85.6644 43.2983 85.6001 43.4601 85.6001Z" fill="#879EC1"/>
<path d="M50.79 88.4501C50.9518 88.4501 51.107 88.3858 51.2214 88.2714C51.3358 88.157 51.4 88.0019 51.4 87.8401V88.4501H50.79Z" fill="#879EC1"/>
<path d="M51.9999 85.6001C51.8381 85.6001 51.683 85.6644 51.5686 85.7788C51.4542 85.8932 51.3899 86.0483 51.3899 86.2101V88.4501H54.2399V85.6001H51.9999Z" fill="#879EC1"/>
<path d="M54.25 85.6001H57.1V88.4501H54.25V85.6001Z" fill="#879EC1"/>
<path d="M57.1001 85.6001H60.0001V88.4501H57.1001V85.6001Z" fill="#879EC1"/>
<path d="M60 85.6001H62.8V88.4501H60V85.6001Z" fill="#879EC1"/>
<path d="M65 85.6001C65.1618 85.6001 65.317 85.6644 65.4314 85.7788C65.5458 85.8932 65.6101 86.0483 65.6101 86.2101V88.4501H62.8V85.6001H65Z" fill="#879EC1"/>
<path d="M69.11 85.6001C68.9482 85.6001 68.7931 85.6644 68.6787 85.7788C68.5643 85.8932 68.5 86.0483 68.5 86.2101V88.4501H71.35V85.6001H69.11Z" fill="#879EC1"/>
<path d="M73.5901 85.6001C73.7519 85.6001 73.907 85.6644 74.0214 85.7788C74.1358 85.8932 74.2001 86.0483 74.2001 86.2101V88.4501H71.3501V85.6001H73.5901Z" fill="#879EC1"/>
<path d="M74.81 88.4501C74.6482 88.4501 74.493 88.3858 74.3786 88.2714C74.2642 88.157 74.2 88.0019 74.2 87.8401V88.4501H74.81Z" fill="#879EC1"/>
<path d="M79.29 88.4501C79.4518 88.4501 79.607 88.3858 79.7214 88.2714C79.8358 88.157 79.9 88.0019 79.9 87.8401V88.4501H79.29Z" fill="#879EC1"/>
<path d="M79.8999 85.6001H82.7499V88.4501H79.8999V85.6001Z" fill="#879EC1"/>
<path d="M83.36 85.6001H82.75V86.2101C82.75 86.0483 82.8143 85.8932 82.9287 85.7788C83.0431 85.6644 83.1982 85.6001 83.36 85.6001Z" fill="#879EC1"/>
<path d="M85.6 86.2101V85.6001H85C85.16 85.6027 85.3126 85.6682 85.4249 85.7823C85.5371 85.8964 85.6 86.05 85.6 86.2101Z" fill="#879EC1"/>
<path d="M85.6001 87.8401C85.6001 88.0019 85.6644 88.157 85.7788 88.2714C85.8932 88.3858 86.0483 88.4501 86.2101 88.4501H87.8401C88.0019 88.4501 88.157 88.3858 88.2714 88.2714C88.3858 88.157 88.4501 88.0019 88.4501 87.8401V85.6001H85.6001V87.8401Z" fill="#879EC1"/>
<path d="M89.06 85.6001H88.45V86.2101C88.45 86.0483 88.5142 85.8932 88.6286 85.7788C88.743 85.6644 88.8982 85.6001 89.06 85.6001Z" fill="#879EC1"/>
<path d="M31.45 90.69C31.45 90.8517 31.5142 91.0069 31.6286 91.1213C31.743 91.2357 31.8982 91.3 32.06 91.3H33.6899C33.8517 91.3 34.0069 91.2357 34.1213 91.1213C34.2357 91.0069 34.2999 90.8517 34.2999 90.69V88.45H31.45V90.69Z" fill="#879EC1"/>
<path d="M34.91 88.45H34.3V89.06C34.3 88.8982 34.3643 88.743 34.4787 88.6286C34.5931 88.5142 34.7483 88.45 34.91 88.45Z" fill="#879EC1"/>
<path d="M50.7901 88.45H49.16C48.9983 88.45 48.8431 88.5142 48.7287 88.6286C48.6143 88.743 48.55 88.8982 48.55 89.06V90.69C48.55 90.8517 48.6143 91.0069 48.7287 91.1213C48.8431 91.2357 48.9983 91.3 49.16 91.3H51.4001V88.45H50.7901Z" fill="#879EC1"/>
<path d="M51.3999 88.45H54.2499V91.3H51.3999V88.45Z" fill="#879EC1"/>
<path d="M54.25 88.45H57.1V91.3H54.25V88.45Z" fill="#879EC1"/>
<path d="M60.0001 90.69C60.0001 90.8517 59.9358 91.0069 59.8214 91.1213C59.707 91.2357 59.5519 91.3 59.3901 91.3H57.1001V88.45H60.0001V90.69Z" fill="#879EC1"/>
<path d="M60.56 88.45H60V89.06C60 88.8982 60.0643 88.743 60.1787 88.6286C60.2931 88.5142 60.4482 88.45 60.61 88.45H60.56Z" fill="#879EC1"/>
<path d="M62.7999 89.06V88.45H62.1899C62.3517 88.45 62.5069 88.5142 62.6213 88.6286C62.7357 88.743 62.7999 88.8982 62.7999 89.06Z" fill="#879EC1"/>
<path d="M62.8 90.69C62.8 90.8517 62.8643 91.0069 62.9787 91.1213C63.0931 91.2357 63.2483 91.3 63.41 91.3H65C65.1618 91.3 65.317 91.2357 65.4314 91.1213C65.5458 91.0069 65.6101 90.8517 65.6101 90.69V88.45H62.8V90.69Z" fill="#879EC1"/>
<path d="M68.5 90.69C68.5 90.8517 68.5643 91.0069 68.6787 91.1213C68.7931 91.2357 68.9482 91.3 69.11 91.3H71.35V88.45H68.5V90.69Z" fill="#879EC1"/>
<path d="M71.3501 88.45H74.2001V91.3H71.3501V88.45Z" fill="#879EC1"/>
<path d="M74.2 88.45H77.05V91.3H74.2V88.45Z" fill="#879EC1"/>
<path d="M77.05 88.45H79.9V91.3H77.05V88.45Z" fill="#879EC1"/>
<path d="M82.7499 90.69C82.7499 90.8517 82.6856 91.0069 82.5712 91.1213C82.4568 91.2357 82.3017 91.3 82.1399 91.3H79.8999V88.45H82.7499V90.69Z" fill="#879EC1"/>
<path d="M25.7799 8.6499H8.67993V28.6499H28.6799V8.6499H25.7799ZM25.7799 14.3499V25.7499H11.5299V11.4999H25.7799V14.3499Z" fill="#879EC1"/>
<path d="M20.0501 14.3501H14.3501V22.9001H22.9001V14.3501H20.0501Z" fill="#879EC1"/>
<path d="M88.4799 8.6499H71.3799V28.6499H91.3799V8.6499H88.4799ZM88.4799 14.3499V25.7499H74.2299V11.4999H88.4799V14.3499Z" fill="#879EC1"/>
<path d="M82.75 14.3501H77.05V22.9001H85.6V14.3501H82.75Z" fill="#879EC1"/>
<path d="M25.7799 71.3501H8.67993V91.3501H28.6799V71.3501H25.7799ZM25.7799 77.0501V88.4501H11.5299V74.2001H25.7799V77.0501Z" fill="#879EC1"/>
<path d="M20.0501 77.05H14.3501V85.6H22.9001V77.05H20.0501Z" fill="#879EC1"/>
</svg>
