<svg width="50" height="51" viewBox="0 0 50 51" fill="none" xmlns="http://www.w3.org/2000/svg">
<g clip-path="url(#clip0_10547_10140)">
<path d="M48.376 16.6253L48.7129 16.2884C50.4264 14.5749 50.4264 11.787 48.7129 10.0735L40.4265 1.78711C38.713 0.0736329 35.9251 0.0736329 34.2116 1.78711L33.8747 2.12402C31.0436 1.04717 28.0634 0.5 25 0.5C18.3223 0.5 12.0442 3.10049 7.32227 7.82227C2.60049 12.5442 0 18.8223 0 25.5C0 28.5635 0.547168 31.5437 1.62402 34.3747L1.28711 34.7116C-0.426367 36.4251 -0.426367 39.213 1.28711 40.9265L9.57353 49.2129C11.287 50.9264 14.0749 50.9264 15.7884 49.2129L16.1253 48.876C18.9564 49.9528 21.9366 50.5 25 50.5C31.6777 50.5 37.9558 47.8996 42.6776 43.1776C47.3995 38.4558 50 32.1777 50 25.5C50 22.4366 49.4528 19.4563 48.376 16.6253ZM25 3.42969C27.2538 3.42969 29.4557 3.76533 31.5725 4.42637L28.3515 7.64736C27.2496 7.4417 26.1261 7.33594 25 7.33594C14.9844 7.33594 6.83594 15.4844 6.83594 25.5C6.83594 26.626 6.9417 27.7495 7.14736 28.8515L3.92627 32.0727C3.26504 29.9559 2.92969 27.7538 2.92969 25.5C2.92969 13.3305 12.8304 3.42969 25 3.42969ZM25.7152 10.2836L9.78271 26.2161C9.77148 25.9777 9.76562 25.739 9.76562 25.5C9.76562 17.0997 16.5998 10.2656 25 10.2656C25.2387 10.2656 25.4771 10.2724 25.7152 10.2836ZM13.7167 47.1413C13.1455 47.7125 12.2162 47.7124 11.6451 47.1413L3.35869 38.8549C2.7876 38.2838 2.7875 37.3545 3.35869 36.7833L36.2833 3.85869C36.8545 3.2875 37.7838 3.2876 38.3549 3.85869L46.6413 12.1451C47.2124 12.7162 47.2125 13.6455 46.6413 14.2167L13.7167 47.1413ZM40.2344 25.5C40.2344 33.9003 33.4002 40.7344 25 40.7344C24.7614 40.7344 24.5229 40.7273 24.285 40.7162L40.2171 24.7841C40.2282 25.0225 40.2344 25.2611 40.2344 25.5ZM25 47.5703C22.7464 47.5703 20.5449 47.2339 18.4284 46.5728L21.6485 43.3526C22.7504 43.5583 23.874 43.6641 25 43.6641C35.0157 43.6641 43.1641 35.5157 43.1641 25.5C43.1641 24.374 43.0583 23.2505 42.8526 22.1485L46.0752 18.926C46.7362 21.0432 47.0703 23.2459 47.0703 25.5C47.0703 37.6696 37.1696 47.5703 25 47.5703Z" fill="#71B00A"/>
<path d="M34.7111 20.8257L27.2088 17.4345C27.2 17.4304 27.191 17.4266 27.1822 17.4229C26.7489 17.2423 26.2546 17.3402 25.9227 17.672C25.9224 17.6723 25.9221 17.6726 25.9218 17.6729C25.5899 18.0055 25.4928 18.5004 25.6745 18.9338C25.6776 18.9412 25.6807 18.9485 25.684 18.9557L29.0562 26.4766C29.2769 26.9688 29.8547 27.1889 30.3467 26.9682C30.8388 26.7475 31.0591 26.1697 30.8383 25.6776L30.2739 24.4186L32.6534 22.039L33.9065 22.6054C34.2873 22.7777 34.7204 22.6853 34.9995 22.4062C35.0805 22.3252 35.1486 22.2285 35.1986 22.1179C35.4208 21.6264 35.2025 21.0479 34.7111 20.8257ZM29.4188 22.5116L28.3308 20.0851L30.7512 21.1792L29.4188 22.5116Z" fill="#71B00A"/>
<path d="M42.411 12.2322L40.7738 13.8694L39.3928 12.4884L40.8583 11.0229C41.2396 10.6415 41.2396 10.0231 40.8583 9.6418C40.477 9.26045 39.8586 9.26045 39.4772 9.6418L38.0117 11.1073L36.6307 9.72627L38.2679 8.08906C38.6492 7.70771 38.6492 7.08936 38.2679 6.70801C37.8865 6.32666 37.2682 6.32666 36.8868 6.70801L34.5591 9.03574C34.1777 9.41709 34.1777 10.0354 34.5591 10.4168L40.0834 15.9411C40.4647 16.3225 41.0831 16.3225 41.4645 15.9411L43.7922 13.6134C44.1735 13.232 44.1735 12.6137 43.7922 12.2323C43.4107 11.8509 42.7924 11.8509 42.411 12.2322Z" fill="#71B00A"/>
<path d="M19.4993 24.0953L17.9347 25.6599C17.7513 25.8433 17.6484 26.0921 17.6486 26.3514C17.6489 26.6108 17.7522 26.8592 17.9359 27.0422C17.936 27.0423 20.0649 29.1631 20.6947 29.7929C21.4544 30.5526 23.4524 32.5365 23.4725 32.5565C23.6563 32.739 23.9052 32.841 24.1641 32.84C24.4221 32.839 24.6689 32.7362 24.8512 32.5539C24.852 32.5531 24.8529 32.5522 24.8538 32.5513C24.9009 32.5039 26.0121 31.3839 26.4501 30.9304C28.0804 29.2421 27.8377 26.5909 25.8732 24.6265C23.8082 22.5615 21.2467 22.3479 19.4993 24.0953ZM25.0453 29.5739C24.8424 29.7839 24.4807 30.1512 24.1549 30.4813C23.499 29.8296 22.5474 28.8835 22.0759 28.412C21.6791 28.0152 20.6877 27.0271 20.0076 26.3492L20.8805 25.4763C22.0161 24.3407 23.4909 25.0062 24.4924 26.0077C25.5043 27.0197 26.0678 28.5148 25.0453 29.5739Z" fill="#71B00A"/>
<path d="M11.4382 33.5376C11.0568 33.1563 10.4385 33.1563 10.0571 33.5376C9.67579 33.9189 9.67579 34.5373 10.0571 34.9187L13.8545 38.716C14.1192 38.9807 14.3857 39.3975 14.0946 40.2785C14.0051 40.5499 13.8534 40.7898 13.6309 41.0124C13.6301 41.0132 13.6294 41.0139 13.6286 41.0146C13.3845 41.2581 13.1131 41.4102 12.7986 41.4794C12.0535 41.6436 11.701 41.4774 11.401 41.1774L7.59962 37.3761C7.21827 36.9947 6.59991 36.9947 6.21857 37.3761C5.83722 37.7574 5.83722 38.3758 6.21857 38.7571L10.0198 42.5584C10.8534 43.3921 11.9297 43.6707 13.2187 43.3866C13.8976 43.2372 14.4995 42.9043 15.0078 42.3974L15.0117 42.3935C15.4489 41.9563 15.7644 41.4507 15.9491 40.8908C16.5323 39.1249 15.8829 37.9823 15.2354 37.3349L11.4382 33.5376Z" fill="#71B00A"/>
<path d="M32.7067 13.6501L33.5477 12.809C33.9291 12.4277 33.9291 11.8093 33.5477 11.428C33.1664 11.0466 32.548 11.0466 32.1667 11.428L29.1159 14.4788C28.7346 14.8601 28.7346 15.4785 29.1159 15.8598C29.4973 16.2412 30.1156 16.2412 30.497 15.8598L31.3257 15.0311L36.1594 19.8648C36.5407 20.2461 37.1591 20.2461 37.5404 19.8648C37.9218 19.4834 37.9218 18.8651 37.5404 18.4837L32.7067 13.6501Z" fill="#71B00A"/>
<path d="M17.6528 34.9459C17.9615 34.6341 18.3016 34.2909 18.4974 34.0952C19.7547 32.838 19.7683 30.8062 18.5279 29.5657C17.2875 28.3253 15.2556 28.339 13.9984 29.5962L12.4602 31.1344C12.2767 31.3179 12.1738 31.5669 12.1742 31.8265C12.1745 32.085 12.2775 32.3326 12.4603 32.5154L12.4602 32.5155L17.9844 38.0397C18.3658 38.421 18.9842 38.421 19.3655 38.0397C19.7469 37.6583 19.7469 37.04 19.3655 36.6586L17.6528 34.9459ZM17.1164 32.7142C16.9213 32.9093 16.5855 33.2479 16.2787 33.5579C15.9576 33.2401 15.6039 32.8893 15.4042 32.6896C15.2336 32.519 14.8685 32.1557 14.534 31.823L15.3796 30.9774C15.8669 30.4901 16.6761 30.4761 17.1469 30.9469C17.6178 31.4177 17.6037 32.2269 17.1164 32.7142Z" fill="#71B00A"/>
</g>
<defs>
<clipPath id="clip0_10547_10140">
<rect width="50" height="50" fill="white" transform="translate(0 0.5)"/>
</clipPath>
</defs>
</svg>
