<svg width="260" height="260" viewBox="0 0 260 260" fill="none" xmlns="http://www.w3.org/2000/svg">
<path fill-rule="evenodd" clip-rule="evenodd" d="M30.0014 161.492C31.527 159.607 34.4498 159.892 35.6575 161.995C36.4321 163.344 36.2251 165.037 35.1938 166.202C29.1816 172.991 26.5885 178.273 28.3171 181.284C33.8711 190.955 81.9345 173.51 135.67 142.317C137.525 141.241 139.362 140.162 141.18 139.082C141.811 138.707 142.173 138.014 142.173 137.28V137.28C142.173 124.862 152.24 114.795 164.659 114.795C166.493 114.795 168.277 115.015 169.984 115.43C173.243 116.221 176.816 116.151 179.547 114.204C208.941 93.2419 226.785 75.0747 222.91 68.3263C221.26 65.4525 215.857 64.9728 207.667 66.5365C206.191 66.8182 204.682 66.1638 203.934 64.861C202.759 62.8143 203.959 60.2184 206.294 59.8767C222.381 57.5227 233.793 59.4885 237.793 66.4541C245.284 79.4998 224.67 106.413 188.786 133.779C187.708 134.601 187.144 135.925 187.144 137.28V137.28C187.144 149.699 177.077 159.766 164.659 159.766C162.703 159.766 160.806 159.516 158.997 159.047C155.947 158.256 152.628 158.233 149.916 159.839C148.811 160.493 147.699 161.145 146.58 161.795C86.1203 196.89 28.934 211.106 18.8504 193.546C14.7121 186.339 19.1503 174.901 30.0014 161.492Z" fill="#3B577F"/>
</svg>
